<svg width="254" height="67" viewBox="0 0 254 67" fill="none" xmlns="http://www.w3.org/2000/svg">
<path d="M68.8815 63.0296C68.8815 63.1889 68.7221 63.3483 68.5626 63.3483H68.0843C67.9248 63.3483 67.8451 63.3483 67.8451 63.1889C67.8451 63.0296 67.8451 63.0296 67.9248 62.8702L70.9543 55.619C70.9543 55.4596 71.1138 55.3799 71.2732 55.3799H71.7516C71.911 55.3799 72.0705 55.3799 72.0705 55.619L75.1 62.8702C75.1 63.0296 75.1797 63.1092 75.1797 63.1889C75.1797 63.2686 75.1 63.3483 74.9405 63.3483H74.4622C74.3824 63.3483 74.3027 63.3483 74.223 63.3483C74.223 63.3483 74.1433 63.1889 74.0636 63.1092L73.1069 60.8781H69.6787L68.7221 63.1092L68.8815 63.0296ZM73.0271 60.0016L71.5921 56.4955C71.2732 57.2127 70.7949 58.3282 70.1571 60.0016H73.0271Z" fill="white"/>
<path d="M77.3321 63.2687H76.8538C76.6944 63.2687 76.6146 63.2687 76.6146 63.0296V55.5394C76.6146 55.38 76.6944 55.3004 76.8538 55.3004H77.3321C77.4916 55.3004 77.5713 55.3004 77.5713 55.5394V63.0296C77.5713 63.189 77.4916 63.2687 77.3321 63.2687Z" fill="white"/>
<path d="M79.5644 60.6391C79.4049 60.6391 79.3252 60.6391 79.3252 60.4798V60.0813C79.3252 59.922 79.4049 59.8423 79.5644 59.8423H82.0358C82.1953 59.8423 82.275 59.8423 82.275 60.0813V60.5594C82.275 60.6391 82.275 60.7188 82.0358 60.7188H79.5644V60.6391Z" fill="white"/>
<path d="M84.7463 63.2686H84.268C84.1085 63.2686 84.0288 63.2686 84.0288 63.0296V55.619C84.0288 55.4596 84.1085 55.3799 84.268 55.3799H86.2611C87.2975 55.3799 88.015 55.4596 88.4933 55.619C89.3703 55.9377 89.7689 56.5752 89.7689 57.6111C89.7689 58.647 89.6095 58.647 89.3703 59.0454C89.1311 59.4438 88.6528 59.6828 88.0947 59.8422C87.6961 59.9219 87.0583 60.0016 86.2611 60.0016H84.9058V63.1092C84.9058 63.2686 84.826 63.3483 84.6666 63.3483L84.7463 63.2686ZM86.4205 59.2048C87.138 59.2048 87.6961 59.2047 88.015 59.0454C88.5731 58.8063 88.892 58.4079 88.892 57.6908C88.892 56.9736 88.6528 56.5752 88.0947 56.3361C87.8555 56.2565 87.2975 56.1768 86.4205 56.1768H85.0652V59.2048H86.5002H86.4205Z" fill="white"/>
<path d="M96.2269 61.914C96.1472 62.3125 95.908 62.6312 95.6688 62.7906C95.4297 63.0296 95.1108 63.189 94.7919 63.2687C94.473 63.3484 93.9946 63.428 93.5163 63.428C93.0379 63.428 92.6393 63.428 92.3204 63.2687C92.0015 63.189 91.6826 63.0296 91.4435 62.7906C91.2043 62.5515 91.0448 62.3125 90.8854 61.914C90.8057 61.5156 90.726 61.0375 90.726 60.4797C90.726 59.922 90.7259 59.3642 90.9651 58.9658C91.1246 58.5673 91.284 58.2486 91.6029 58.0892C91.9218 57.9299 92.161 57.7705 92.4799 57.6908C92.7988 57.6908 93.1974 57.6111 93.6757 57.6111C94.1541 57.6111 94.5527 57.6111 94.8716 57.6908C95.1905 57.6908 95.5094 57.9299 95.7485 58.0892C95.9877 58.3283 96.2269 58.5673 96.3066 58.9658C96.3863 59.3642 96.4661 59.8423 96.4661 60.4797C96.4661 61.1172 96.4661 61.5953 96.3066 61.914H96.2269ZM95.3499 59.0454C95.1905 58.7267 95.031 58.5673 94.7919 58.408C94.5527 58.3283 94.1541 58.2486 93.6757 58.2486C93.1974 58.2486 92.4799 58.408 92.161 58.647C91.8421 58.9658 91.6826 59.5235 91.6826 60.3204C91.6826 61.1172 91.6826 61.1969 91.7624 61.5156C91.7624 61.8344 91.9218 62.0734 92.161 62.1531C92.3204 62.3125 92.5596 62.3922 92.719 62.4718C92.9582 62.4718 93.1974 62.4718 93.596 62.4718C93.9946 62.4718 94.2338 62.4718 94.473 62.4718C94.7121 62.4718 94.8716 62.3125 95.031 62.1531C95.1905 61.9937 95.3499 61.7547 95.4297 61.5156C95.5094 61.1969 95.5891 60.7985 95.5891 60.3204C95.5891 59.8423 95.5891 59.2048 95.4297 58.9658L95.3499 59.0454Z" fill="white"/>
<path d="M100.133 63.0296C100.133 63.189 99.9738 63.2687 99.8143 63.2687H99.4157C99.2563 63.2687 99.1765 63.2687 99.0968 63.0296L97.3429 58.0096C97.3429 57.9299 97.3429 57.8502 97.3429 57.7705C97.3429 57.6908 97.3429 57.6112 97.5821 57.6112H98.0604H98.2199C98.2199 57.6112 98.2199 57.6908 98.2996 57.8502C98.9374 59.6829 99.4157 61.0375 99.7346 61.9937C100.054 61.1172 100.532 59.8423 101.249 58.0893C101.329 57.8502 101.489 57.7705 101.568 57.7705H101.887C101.967 57.7705 102.126 57.8502 102.206 58.0893C103.083 60.0813 103.561 61.3563 103.801 61.9937C104.119 60.8782 104.598 59.5236 105.156 57.8502C105.156 57.7705 105.236 57.6908 105.315 57.6112C105.395 57.5315 105.395 57.6112 105.475 57.6112H105.953C106.113 57.6112 106.192 57.6112 106.192 57.7705C106.192 57.9299 106.192 57.9299 106.192 58.0893L104.438 63.0296C104.438 63.189 104.279 63.2687 104.119 63.2687H103.721C103.561 63.2687 103.482 63.2687 103.402 63.0296C102.525 60.9579 101.967 59.6032 101.807 59.0455C101.568 59.6829 101.09 60.9579 100.213 63.0296H100.133Z" fill="white"/>
<path d="M108.425 62.2327C108.743 62.4717 109.222 62.6311 109.939 62.6311C110.657 62.6311 111.215 62.5514 111.693 62.3921C111.853 62.3921 111.932 62.3921 112.012 62.3921C112.012 62.3921 112.172 62.3921 112.172 62.4717C112.172 62.6311 112.251 62.7905 112.251 62.8702C112.251 62.9498 112.251 63.0295 112.012 63.1092C111.454 63.3483 110.737 63.4279 109.86 63.4279C108.983 63.4279 108.026 63.1889 107.627 62.7108C107.229 62.2327 106.99 61.5155 106.99 60.4797C106.99 59.4438 107.229 58.7266 107.707 58.2485C108.185 57.7704 108.903 57.5314 109.86 57.5314C110.816 57.5314 110.657 57.5314 110.976 57.6907C111.295 57.7704 111.534 57.9298 111.693 58.0892C111.853 58.2485 112.012 58.4079 112.092 58.6469C112.172 58.886 112.251 59.125 112.331 59.3641C112.331 59.6031 112.331 59.9219 112.331 60.3203C112.331 60.7187 112.331 60.639 112.251 60.639C112.251 60.639 112.092 60.639 112.012 60.639H107.946C107.946 61.3562 108.106 61.914 108.425 62.153V62.2327ZM111.454 60.0016C111.454 60.0016 111.454 59.8422 111.454 59.7625C111.454 59.2844 111.374 58.886 111.135 58.6469C110.896 58.4079 110.497 58.2485 109.86 58.2485C109.222 58.2485 108.664 58.4079 108.345 58.7266C108.026 59.0454 107.946 59.4438 107.866 60.0812H111.454V60.0016Z" fill="white"/>
<path d="M114.802 63.2687H114.404C114.244 63.2687 114.165 63.2687 114.165 63.0296V57.8502C114.165 57.6908 114.244 57.6112 114.484 57.6112H114.882C114.962 57.6112 115.042 57.6112 115.042 57.6112C115.042 57.6112 115.042 57.6908 115.042 57.7705V58.0096C115.201 57.8502 115.44 57.6908 115.839 57.6112C116.158 57.5315 116.556 57.4518 116.875 57.4518C117.194 57.4518 117.194 57.4518 117.274 57.4518C117.354 57.4518 117.433 57.5315 117.433 57.6908C117.433 57.8502 117.433 58.0096 117.433 58.0893C117.433 58.1689 117.354 58.2486 117.194 58.2486C117.035 58.2486 117.114 58.2486 116.955 58.2486C116.796 58.2486 116.716 58.2486 116.716 58.2486C116.158 58.2486 115.759 58.3283 115.361 58.4877C115.201 58.4877 115.121 58.5674 115.121 58.647C115.121 58.647 115.121 58.8064 115.121 58.8861V62.9499C115.121 63.1093 115.042 63.189 114.882 63.189L114.802 63.2687Z" fill="white"/>
<path d="M119.506 62.2327C119.825 62.4717 120.303 62.6311 121.021 62.6311C121.738 62.6311 122.296 62.5514 122.775 62.3921C122.934 62.3921 123.014 62.3921 123.094 62.3921C123.094 62.3921 123.253 62.3921 123.253 62.4717C123.253 62.6311 123.333 62.7905 123.333 62.8702C123.333 62.9498 123.333 63.0295 123.094 63.1092C122.536 63.3483 121.818 63.4279 120.941 63.4279C120.064 63.4279 119.107 63.1889 118.709 62.7108C118.31 62.2327 118.071 61.5155 118.071 60.4797C118.071 59.4438 118.31 58.7266 118.789 58.2485C119.267 57.7704 119.984 57.5314 120.941 57.5314C121.898 57.5314 121.738 57.5314 122.057 57.6907C122.376 57.7704 122.615 57.9298 122.775 58.0892C122.934 58.2485 123.094 58.4079 123.173 58.6469C123.253 58.886 123.333 59.125 123.413 59.3641C123.413 59.6031 123.413 59.9219 123.413 60.3203C123.413 60.7187 123.413 60.639 123.333 60.639C123.333 60.639 123.173 60.639 123.094 60.639H119.028C119.028 61.3562 119.187 61.914 119.506 62.153V62.2327ZM122.615 60.0016C122.615 60.0016 122.615 59.8422 122.615 59.7625C122.615 59.2844 122.536 58.886 122.296 58.6469C122.057 58.4079 121.659 58.2485 121.021 58.2485C120.383 58.2485 119.825 58.4079 119.506 58.7266C119.187 59.0454 119.107 59.4438 119.028 60.0812H122.615V60.0016Z" fill="white"/>
<path d="M130.189 63.189C130.189 63.189 130.109 63.189 130.03 63.189H129.711C129.551 63.189 129.472 63.189 129.472 63.0296V62.7905C128.993 63.1093 128.355 63.3483 127.399 63.3483C126.442 63.3483 125.964 63.1093 125.565 62.7109C125.167 62.2328 124.927 61.5953 124.927 60.5594C124.927 59.5235 125.167 58.647 125.645 58.1689C126.123 57.6908 126.92 57.5314 128.037 57.5314C129.153 57.5314 129.153 57.5314 129.472 57.6908V55.0613C129.472 54.9019 129.551 54.8222 129.711 54.8222H130.109C130.269 54.8222 130.349 54.8222 130.349 55.0613V62.9499C130.349 63.0296 130.349 63.1093 130.349 63.1093L130.189 63.189ZM129.312 58.4876C129.073 58.3283 128.595 58.2486 127.877 58.2486C127.16 58.2486 126.442 58.408 126.123 58.7267C125.804 59.0454 125.645 59.6032 125.645 60.4797C125.645 61.3562 125.804 61.7547 126.044 62.0734C126.283 62.3921 126.761 62.5515 127.479 62.5515C128.196 62.5515 128.674 62.4718 128.993 62.2328C129.073 62.2328 129.153 62.1531 129.232 62.0734C129.232 62.0734 129.232 61.9937 129.232 61.8343V58.408L129.312 58.4876Z" fill="white"/>
<path d="M140.314 59.7626C140.633 60.0813 140.792 60.4798 140.792 61.0375C140.792 61.5953 140.553 62.3922 140.075 62.7906C139.597 63.189 138.799 63.3484 137.683 63.3484C136.567 63.3484 135.929 63.189 135.212 62.9499C135.052 62.9499 134.973 62.7906 134.973 62.7109C134.973 62.6312 134.973 62.4718 135.052 62.3125C135.052 62.2328 135.212 62.1531 135.371 62.1531C135.531 62.1531 135.531 62.1531 135.69 62.1531C136.328 62.3922 136.966 62.4718 137.683 62.4718C138.401 62.4718 138.56 62.4718 138.879 62.3125C139.198 62.1531 139.437 62.0734 139.517 61.9141C139.676 61.7547 139.756 61.5953 139.756 61.436C139.756 61.2766 139.756 61.1172 139.756 60.9579C139.756 60.6391 139.676 60.4001 139.437 60.161C139.198 59.922 138.72 59.7626 138.002 59.6032L136.806 59.2845C136.248 59.1251 135.77 58.8861 135.451 58.5674C135.132 58.2486 134.973 57.7705 134.973 57.2924C134.973 56.5753 135.212 56.0175 135.69 55.6191C136.169 55.2206 136.966 55.0613 138.002 55.0613C139.039 55.0613 139.437 55.141 140.075 55.3003C140.234 55.3003 140.314 55.4597 140.314 55.5394C140.314 55.6191 140.314 55.7784 140.234 55.9378C140.234 56.0175 140.155 56.0972 139.995 56.0972C139.836 56.0972 139.836 56.0972 139.676 56.0972C139.039 55.9378 138.481 55.8581 137.922 55.8581C137.364 55.8581 136.647 55.9378 136.328 56.1768C136.009 56.4159 135.929 56.7346 135.929 57.2127C135.929 57.6908 136.009 57.8502 136.248 58.0096C136.487 58.2486 136.886 58.408 137.524 58.5674L138.64 58.8064C139.437 59.0455 139.916 59.2845 140.234 59.5236L140.314 59.7626Z" fill="white"/>
<path d="M147.649 61.914C147.569 62.3125 147.33 62.6312 147.091 62.7906C146.852 63.0296 146.533 63.189 146.214 63.2687C145.895 63.3484 145.417 63.428 144.938 63.428C144.46 63.428 144.061 63.428 143.742 63.2687C143.423 63.189 143.105 63.0296 142.865 62.7906C142.626 62.5515 142.467 62.3125 142.307 61.914C142.228 61.5156 142.148 61.0375 142.148 60.4797C142.148 59.922 142.148 59.3642 142.387 58.9658C142.546 58.5673 142.706 58.2486 143.025 58.0892C143.344 57.9299 143.583 57.7705 143.902 57.6908C144.221 57.6908 144.619 57.6111 145.098 57.6111C145.576 57.6111 145.975 57.6111 146.293 57.6908C146.612 57.6908 146.931 57.9299 147.17 58.0892C147.41 58.3283 147.649 58.5673 147.728 58.9658C147.808 59.3642 147.888 59.8423 147.888 60.4797C147.888 61.1172 147.888 61.5953 147.728 61.914H147.649ZM146.692 59.0454C146.533 58.7267 146.373 58.5673 146.134 58.408C145.895 58.3283 145.496 58.2486 145.018 58.2486C144.54 58.2486 143.822 58.408 143.503 58.647C143.184 58.9658 143.025 59.5235 143.025 60.3204C143.025 61.1172 143.025 61.1969 143.105 61.5156C143.105 61.8344 143.264 62.0734 143.503 62.1531C143.663 62.3125 143.902 62.3922 144.061 62.4718C144.3 62.4718 144.54 62.4718 144.938 62.4718C145.337 62.4718 145.576 62.4718 145.815 62.4718C146.054 62.4718 146.214 62.3125 146.373 62.1531C146.533 61.9937 146.692 61.7547 146.772 61.5156C146.852 61.1969 146.931 60.7985 146.931 60.3204C146.931 59.8423 146.931 59.2048 146.772 58.9658L146.692 59.0454Z" fill="white"/>
<path d="M150.28 63.2687H149.881C149.721 63.2687 149.642 63.2687 149.642 63.0297V55.141C149.642 54.9817 149.721 54.902 149.881 54.902H150.28C150.439 54.902 150.519 54.902 150.519 55.141V63.0297C150.519 63.1891 150.439 63.2687 150.28 63.2687Z" fill="white"/>
<path d="M156.099 63.2688C155.701 63.3484 155.222 63.4281 154.824 63.4281C153.787 63.4281 153.15 63.1891 152.99 62.711C152.91 62.4719 152.831 62.1532 152.831 61.5954V57.93C152.831 57.7706 152.91 57.6909 153.07 57.6909H153.468C153.628 57.6909 153.708 57.6909 153.708 57.93V61.436C153.708 61.8345 153.708 62.0735 153.787 62.2329C153.867 62.5516 154.345 62.711 154.983 62.711C155.621 62.711 156.259 62.6313 156.657 62.4719C156.737 62.4719 156.817 62.3922 156.897 62.3126C156.897 62.3126 156.897 62.1532 156.897 61.9938V57.93C156.897 57.7706 156.976 57.6909 157.136 57.6909H157.534C157.694 57.6909 157.774 57.6909 157.774 57.93V63.1094C157.774 63.2688 157.694 63.3484 157.534 63.3484H157.136C156.976 63.3484 156.897 63.3484 156.897 63.1094V62.95C156.657 63.1094 156.339 63.2688 155.94 63.3484L156.099 63.2688Z" fill="white"/>
<path d="M161.281 61.675C161.281 62.0734 161.281 62.3124 161.441 62.4718C161.441 62.6312 161.76 62.7109 162.078 62.7109C162.397 62.7109 162.318 62.7109 162.477 62.7109C162.636 62.7109 162.716 62.7109 162.716 62.7109C162.796 62.7109 162.876 62.7109 162.876 62.8702C162.876 62.8702 162.876 62.8702 162.876 62.9499C162.876 62.9499 162.876 63.0296 162.876 63.1093C162.876 63.1093 162.876 63.1093 162.876 63.189C162.876 63.2686 162.876 63.3483 162.636 63.428C162.397 63.428 161.999 63.5077 161.68 63.5077C161.361 63.5077 160.803 63.3483 160.564 63.1093C160.404 62.8702 160.324 62.5515 160.324 61.914V58.4876H159.607C159.448 58.4876 159.368 58.4876 159.368 58.2486V57.9299C159.368 57.7705 159.448 57.6908 159.607 57.6908H160.324C160.324 57.4518 160.324 57.0533 160.324 56.4159C160.324 56.2565 160.324 56.1768 160.564 56.1768H160.962C161.122 56.1768 161.201 56.2565 161.201 56.4159V57.6908H162.397C162.557 57.6908 162.636 57.6908 162.636 57.8502V58.2486C162.636 58.408 162.557 58.4876 162.397 58.4876H161.201V61.675H161.281Z" fill="white"/>
<path d="M164.63 56.4159C164.231 56.4159 163.992 56.2566 163.992 55.8581C163.992 55.4597 164.231 55.3004 164.63 55.3004C165.028 55.3004 165.268 55.4597 165.268 55.8581C165.268 56.2566 165.028 56.4159 164.63 56.4159ZM164.869 63.2687H164.47C164.311 63.2687 164.231 63.2687 164.231 63.0296V57.9299C164.231 57.7705 164.311 57.6909 164.47 57.6909H164.949C165.108 57.6909 165.188 57.6909 165.188 57.9299V63.1093C165.188 63.2687 165.108 63.3484 164.949 63.3484L164.869 63.2687Z" fill="white"/>
<path d="M172.443 61.914C172.363 62.3125 172.124 62.6312 171.885 62.7906C171.645 63.0296 171.326 63.189 171.008 63.2687C170.689 63.3484 170.21 63.428 169.732 63.428C169.254 63.428 168.855 63.428 168.536 63.2687C168.217 63.189 167.898 63.0296 167.659 62.7906C167.42 62.5515 167.261 62.3125 167.101 61.914C167.021 61.5156 166.942 61.0375 166.942 60.4797C166.942 59.922 166.942 59.3642 167.181 58.9658C167.34 58.5673 167.5 58.2486 167.819 58.0892C168.138 57.9299 168.377 57.7705 168.696 57.6908C169.014 57.6908 169.413 57.6111 169.891 57.6111C170.37 57.6111 170.768 57.6111 171.087 57.6908C171.406 57.7705 171.725 57.9299 171.964 58.0892C172.203 58.3283 172.443 58.5673 172.522 58.9658C172.602 59.3642 172.682 59.8423 172.682 60.4797C172.682 61.1172 172.682 61.5953 172.522 61.914H172.443ZM171.486 59.0454C171.326 58.7267 171.167 58.5673 170.928 58.408C170.689 58.3283 170.29 58.2486 169.812 58.2486C169.333 58.2486 168.616 58.408 168.297 58.647C167.978 58.9658 167.819 59.5235 167.819 60.3204C167.819 61.1172 167.819 61.1969 167.898 61.5156C167.898 61.8344 168.058 62.0734 168.297 62.1531C168.456 62.3125 168.696 62.3922 168.855 62.4718C169.094 62.4718 169.333 62.4718 169.732 62.4718C170.131 62.4718 170.37 62.4718 170.609 62.4718C170.848 62.4718 171.008 62.3125 171.167 62.1531C171.326 61.9937 171.486 61.7547 171.566 61.5156C171.645 61.1969 171.725 60.7985 171.725 60.3204C171.725 59.8423 171.725 59.2048 171.566 58.9658L171.486 59.0454Z" fill="white"/>
<path d="M175.153 63.2687H174.755C174.595 63.2687 174.515 63.2687 174.515 63.0296V57.8502C174.515 57.6908 174.595 57.6112 174.834 57.6112H175.233C175.313 57.6112 175.392 57.6112 175.392 57.6112C175.392 57.6112 175.392 57.6908 175.392 57.7705V58.0096C175.632 57.8502 175.95 57.6908 176.429 57.6112C176.907 57.5315 177.306 57.4518 177.784 57.4518C178.262 57.4518 178.741 57.4518 178.98 57.6112C179.219 57.6908 179.458 57.9299 179.538 58.1689C179.538 58.3283 179.618 58.7267 179.618 59.2845V63.0296C179.618 63.189 179.538 63.2687 179.379 63.2687H178.98C178.82 63.2687 178.741 63.2687 178.741 63.0296V59.5236C178.741 59.1251 178.741 58.8861 178.661 58.7267C178.661 58.5673 178.502 58.4877 178.342 58.408C178.183 58.408 177.944 58.3283 177.545 58.3283C176.827 58.3283 176.19 58.408 175.791 58.647C175.711 58.647 175.632 58.7267 175.552 58.8064C175.552 58.8064 175.552 58.9658 175.552 59.0455V63.0296C175.552 63.189 175.472 63.2687 175.313 63.2687H175.153Z" fill="white"/>
<path d="M185.437 60.7188C185.677 60.9579 185.836 61.2766 185.836 61.7547C185.836 62.8703 185.039 63.428 183.444 63.428C181.85 63.428 181.93 63.3484 181.451 63.189C181.292 63.189 181.292 63.1093 181.292 62.9499C181.292 62.7906 181.292 62.7109 181.451 62.5515C181.451 62.4718 181.531 62.3922 181.69 62.3922C181.85 62.3922 181.85 62.3922 181.93 62.3922C182.408 62.5515 182.966 62.6312 183.524 62.6312C184.082 62.6312 184.56 62.6312 184.72 62.3922C184.959 62.2328 185.039 61.9937 185.039 61.7547C185.039 61.5156 185.039 61.3563 184.8 61.1969C184.56 61.0375 184.321 60.9579 183.843 60.8782L182.807 60.6391C181.85 60.4001 181.371 59.922 181.371 59.1251C181.371 58.3283 182.169 57.4518 183.763 57.4518C185.358 57.4518 184.959 57.4518 185.437 57.6112C185.597 57.6112 185.677 57.6908 185.677 57.8502C185.677 58.0096 185.677 58.0892 185.597 58.2486C185.597 58.3283 185.517 58.408 185.437 58.408H185.198C184.72 58.2486 184.242 58.2486 183.843 58.2486C183.444 58.2486 182.886 58.2486 182.647 58.4877C182.408 58.647 182.328 58.8064 182.328 59.1251C182.328 59.4439 182.328 59.5236 182.567 59.6829C182.807 59.8423 183.046 59.922 183.524 60.0017L184.401 60.2407C184.959 60.3204 185.358 60.5594 185.597 60.7188H185.437Z" fill="white"/>
<path d="M0 48.2882H45.602" stroke="white" stroke-width="1.71658" stroke-miterlimit="10"/>
<path d="M23.6779 2.62958H15.9447L0.478271 42.9494H8.45065L11.1613 34.8217H27.6641L30.6139 42.9494H38.7457L35.3176 34.9014H46.0006V28.2876H33.2448L23.6779 2.62958ZM13.3935 28.447L19.3728 10.7573L25.3521 28.447H13.3138H13.3935Z" fill="white"/>
<path d="M23.6779 2.62958H15.9447L0.478271 42.9494H8.45065L11.1613 34.8217H27.6641L30.6139 42.9494H38.7457L35.3176 34.9014H46.0006V28.2876H33.2448L23.6779 2.62958ZM13.3935 28.447L19.3728 10.7573L25.3521 28.447H13.3138H13.3935Z" fill="white"/>
<path d="M45.5221 11.1556H37.7889V26.2158H45.5221V11.1556Z" fill="white"/>
<path d="M45.5221 11.1556H37.7889V26.2158H45.5221V11.1556Z" fill="white"/>
<path d="M68.7219 11.1556H63.2209C56.5241 11.1556 51.0232 16.5741 51.0232 23.3472V31.5546C51.0232 38.248 56.4444 43.7462 63.2209 43.7462H68.7219C75.4187 43.7462 80.9196 38.3277 80.9196 31.5546V23.3472C80.9196 16.6538 75.4984 11.1556 68.7219 11.1556ZM73.585 31.3155C73.585 34.3435 71.1136 36.8137 68.0841 36.8137H63.6993C60.6698 36.8137 58.1983 34.3435 58.1983 31.3155V23.0285C58.1983 20.0005 60.6698 17.5303 63.6993 17.5303H68.0841C71.1136 17.5303 73.585 20.0005 73.585 23.0285V31.3155Z" fill="white"/>
<path d="M68.7219 11.1556H63.2209C56.5241 11.1556 51.0232 16.5741 51.0232 23.3472V31.5546C51.0232 38.248 56.4444 43.7462 63.2209 43.7462H68.7219C75.4187 43.7462 80.9196 38.3277 80.9196 31.5546V23.3472C80.9196 16.6538 75.4984 11.1556 68.7219 11.1556ZM73.585 31.3155C73.585 34.3435 71.1136 36.8137 68.0841 36.8137H63.6993C60.6698 36.8137 58.1983 34.3435 58.1983 31.3155V23.0285C58.1983 20.0005 60.6698 17.5303 63.6993 17.5303H68.0841C71.1136 17.5303 73.585 20.0005 73.585 23.0285V31.3155Z" fill="white"/>
<path d="M82.7533 16.6538V10.9963H77.8104L82.7533 16.6538Z" fill="white"/>
<path d="M82.7533 16.6538V10.9963H77.8104L82.7533 16.6538Z" fill="white"/>
<path d="M119.426 10.8369C119.426 10.8369 113.287 10.9963 109.7 14.2633C109.7 14.2633 107.787 10.8369 101.728 10.8369C95.6685 10.8369 94.2335 12.7493 92.8782 13.8649V10.9963H85.3842V43.1087H92.8782V19.4427C94.6321 18.4068 98.2197 16.6538 100.93 17.5303C102.604 18.0881 103.641 19.7614 103.641 21.5145V43.1087H111.135V18.8849C111.135 18.8849 118.948 15.2992 121.34 18.8849C121.738 19.4427 121.818 20.0802 121.818 20.7176V43.1087H129.232V18.5662C129.232 18.5662 129.312 10.7572 119.426 10.7572V10.8369Z" fill="white"/>
<path d="M119.426 10.8369C119.426 10.8369 113.287 10.9963 109.7 14.2633C109.7 14.2633 107.787 10.8369 101.728 10.8369C95.6685 10.8369 94.2335 12.7493 92.8782 13.8649V10.9963H85.3842V43.1087H92.8782V19.4427C94.6321 18.4068 98.2197 16.6538 100.93 17.5303C102.604 18.0881 103.641 19.7614 103.641 21.5145V43.1087H111.135V18.8849C111.135 18.8849 118.948 15.2992 121.34 18.8849C121.738 19.4427 121.818 20.0802 121.818 20.7176V43.1087H129.232V18.5662C129.232 18.5662 129.312 10.7572 119.426 10.7572V10.8369Z" fill="white"/>
<path d="M181.292 36.6543C178.741 36.1762 177.067 35.0606 177.067 32.5905C177.067 30.1203 177.226 17.2116 177.226 17.2116H187.351V10.9166H177.226V3.90442H169.891V10.9962H156.817C156.817 10.9962 161.202 12.829 162.079 17.2912H169.891V34.1841C169.891 34.1841 170.37 43.3477 178.741 43.3477C178.741 43.3477 185.836 43.3477 187.75 42.3118V36.0965C187.75 36.0965 183.843 37.1324 181.292 36.6543Z" fill="white"/>
<path d="M181.292 36.6543C178.741 36.1762 177.067 35.0606 177.067 32.5905C177.067 30.1203 177.226 17.2116 177.226 17.2116H187.351V10.9166H177.226V3.90442H169.891V10.9962H156.817C156.817 10.9962 161.202 12.829 162.079 17.2912H169.891V34.1841C169.891 34.1841 170.37 43.3477 178.741 43.3477C178.741 43.3477 185.836 43.3477 187.75 42.3118V36.0965C187.75 36.0965 183.843 37.1324 181.292 36.6543Z" fill="white"/>
<path d="M191.736 23.8252V43.1086H198.831V24.7814C198.831 21.2753 201.701 18.4067 205.209 18.4067H210.311V11.0759H204.571C197.555 11.0759 191.815 16.8131 191.815 23.8252H191.736Z" fill="white"/>
<path d="M191.736 23.8252V43.1086H198.831V24.7814C198.831 21.2753 201.701 18.4067 205.209 18.4067H210.311V11.0759H204.571C197.555 11.0759 191.815 16.8131 191.815 23.8252H191.736Z" fill="white"/>
<path d="M198.113 10.9963H191.736V17.2913C193.171 14.582 195.403 12.3509 198.113 10.9963Z" fill="white"/>
<path d="M198.113 10.9963H191.736V17.2913C193.171 14.582 195.403 12.3509 198.113 10.9963Z" fill="white"/>
<path d="M222.19 10.9963H214.218V43.1884H222.19V10.9963Z" fill="white"/>
<path d="M222.19 10.9963H214.218V43.1884H222.19V10.9963Z" fill="white"/>
<path d="M222.19 0H214.218V7.96834H222.19V0Z" fill="white"/>
<path d="M222.19 0H214.218V7.96834H222.19V0Z" fill="white"/>
<path d="M45.5223 0.637512H37.5499V7.4106H45.5223V0.637512Z" fill="white"/>
<path d="M45.5223 0.637512H37.5499V7.4106H45.5223V0.637512Z" fill="white"/>
<path d="M243.955 27.0923L239.968 20.7177L233.909 10.9963H225.937L235.982 27.0923L225.937 43.1884H233.909L239.968 33.467L246.027 43.1884H254L243.955 27.0923Z" fill="white"/>
<path d="M243.955 27.0923L239.968 20.7177L233.909 10.9963H225.937L235.982 27.0923L225.937 43.1884H233.909L239.968 33.467L246.027 43.1884H254L243.955 27.0923Z" fill="white"/>
<path d="M241.962 17.5303L245.948 23.905L254 10.9963H246.028L241.962 17.5303Z" fill="white"/>
<path d="M241.962 17.5303L245.948 23.905L254 10.9963H246.028L241.962 17.5303Z" fill="white"/>
<path d="M150.518 11.0759H144.858C144.858 11.0759 133.218 11.1556 133.218 24.0643V31.1561C133.218 31.1561 132.74 43.6664 147.489 43.6664C147.489 43.6664 156.019 43.9054 158.81 41.4353V35.2199C158.81 35.2199 138.879 41.754 139.995 29.5624H159.926V22.4706C159.926 22.4706 160.723 11.1556 150.518 11.1556V11.0759ZM153.787 24.383H139.915V22.5503C139.915 19.4426 142.386 16.9724 145.496 16.9724H148.206C151.315 16.9724 153.787 19.4426 153.787 22.5503V24.383Z" fill="white"/>
<path d="M150.518 11.0759H144.858C144.858 11.0759 133.218 11.1556 133.218 24.0643V31.1561C133.218 31.1561 132.74 43.6664 147.489 43.6664C147.489 43.6664 156.019 43.9054 158.81 41.4353V35.2199C158.81 35.2199 138.879 41.754 139.995 29.5624H159.926V22.4706C159.926 22.4706 160.723 11.1556 150.518 11.1556V11.0759ZM153.787 24.383H139.915V22.5503C139.915 19.4426 142.386 16.9724 145.496 16.9724H148.206C151.315 16.9724 153.787 19.4426 153.787 22.5503V24.383Z" fill="white"/>
</svg>
