<svg width="127" height="38" viewBox="0 0 127 38" fill="none" xmlns="http://www.w3.org/2000/svg">
<path d="M21.5033 0.946437C21.4489 1.3152 21.4166 1.68918 21.3363 2.05404C20.3575 6.52222 19.3709 10.9891 18.3881 15.4573C18.2884 15.912 18.1991 16.3681 18.0942 16.8815C18.7649 16.5492 19.367 16.2443 19.9742 15.9498C20.509 15.6905 21.0398 15.4195 21.5875 15.1928C21.9319 15.0494 22.3009 14.9308 22.6686 14.8852C23.1451 14.8266 23.3885 15.112 23.2771 15.5863C23.1956 15.9342 23.0609 16.2782 22.8952 16.5961C22.2271 17.8797 21.5422 19.1527 20.8572 20.4271C19.3333 23.2613 17.8068 26.0941 16.2816 28.9283C14.8509 31.5878 13.4228 34.2473 11.9882 36.9043C11.8211 37.2144 11.6192 37.5063 11.434 37.8073C11.3887 37.7917 11.3434 37.776 11.2981 37.7604C11.3162 37.5767 11.3162 37.389 11.3537 37.2105C11.8095 35.0891 12.2691 32.9691 12.7326 30.849C13.3554 28.0057 13.9847 25.1637 14.6075 22.3192C14.6372 22.185 14.6282 22.0416 14.6398 21.8423C14.0585 22.1276 13.5341 22.3908 13.0045 22.6449C12.3559 22.9577 11.7098 23.2782 11.0495 23.5636C10.7568 23.69 10.4345 23.7773 10.1185 23.806C9.64077 23.849 9.42584 23.6144 9.5346 23.1531C9.633 22.7361 9.77801 22.3179 9.97741 21.9387C10.9109 20.1626 11.8703 18.3996 12.8207 16.6326C14.4391 13.6226 16.0576 10.6138 17.6773 7.60506C18.7662 5.58271 19.8551 3.56297 20.9492 1.54324C21.067 1.32563 21.212 1.12235 21.3454 0.911255C21.3985 0.922982 21.4502 0.93471 21.5033 0.94774V0.946437Z" fill="white"/>
<path d="M22.3136 6.23171C22.3201 6.0975 22.3111 6.00629 22.3292 5.92028C22.4651 5.30394 22.6076 4.6902 22.7487 4.07385C26.216 4.99511 31.1025 8.71925 33.0744 14.381C35.1939 20.4676 33.815 27.3842 29.1033 32.1678C24.5251 36.8171 18.3116 37.8491 14.0712 36.9018C14.4001 36.2111 14.7587 35.5557 15.1394 34.8964C15.4372 34.8964 15.7246 34.8703 16.0056 34.9003C17.5645 35.071 19.0988 34.8885 20.6046 34.5119C23.2666 33.8461 25.5764 32.517 27.4991 30.5507C29.7481 28.2508 31.1568 25.5039 31.6048 22.2945C32.2418 17.7221 31.0222 13.6943 28.0093 10.2217C26.541 8.529 24.7517 7.27677 22.6943 6.41023C22.5791 6.36202 22.469 6.30468 22.3149 6.23302L22.3136 6.23171Z" fill="white"/>
<path d="M18.0489 3.07947C17.654 3.81831 17.2901 4.49981 16.9108 5.20997C16.591 5.24516 16.2738 5.29206 15.9539 5.31161C13.5328 5.45755 11.3006 6.2042 9.25747 7.49944C5.98173 9.57652 3.78324 12.4967 2.79534 16.2664C1.6443 20.6603 2.37454 24.7675 4.90968 28.5334C6.22515 30.488 7.94847 31.9982 9.99548 33.1397C10.1029 33.1996 10.2039 33.2726 10.3321 33.3534C10.1703 34.0818 10.0123 34.7998 9.85306 35.5204C8.12456 35.0226 5.06116 32.6797 3.29253 30.2C0.565768 26.3807 -0.504996 22.1223 0.221363 17.5056C1.81132 7.41344 10.9186 2.33282 18.0489 3.07947Z" fill="white"/>
<path d="M75.8185 21.6299C75.285 25.7932 73.506 29.1955 70.4815 31.7911C67.4569 34.3868 63.7202 35.686 59.3168 35.686C54.5132 35.686 50.5539 34.1197 47.4853 31.0302C44.4167 27.9419 42.8591 24.0471 42.8591 19.347C42.8591 14.6468 44.4154 10.752 47.4853 7.66376C50.5539 4.57551 54.5132 3.00793 59.3168 3.00793C63.6309 3.00793 67.2782 4.21717 70.2588 6.67864C73.2393 9.14012 75.0623 12.3639 75.7304 16.3473H66.8794C66.3007 14.6012 65.3672 13.2591 64.0323 12.274C62.6974 11.2889 61.0971 10.7963 59.2728 10.7963C57.0043 10.7963 55.136 11.6016 53.6678 13.2135C52.1995 14.7797 51.4887 16.8399 51.4887 19.347C51.4887 21.854 52.2008 23.823 53.6237 25.3905C55.0467 26.9581 56.915 27.7634 59.2287 27.7634C61.3198 27.7634 63.0094 27.2265 64.3883 26.1072C65.7673 24.9879 66.6568 23.4659 67.0568 21.5413L75.8197 21.6312L75.8185 21.6299Z" fill="white"/>
<path d="M80.1401 34.9693V3.49915H102.418V11.0647H88.3696V15.4964H100.445V22.6137H88.3696V27.4037H102.64V34.9693H80.1414H80.1401Z" fill="white"/>
<path d="M106.297 34.9693V3.49915H114.525V27.4037H127V34.9693H106.297Z" fill="white"/>
</svg>
