<svg width="274" height="53" viewBox="0 0 274 53" fill="none" xmlns="http://www.w3.org/2000/svg">
<path d="M37.1544 45.8992C39.4122 46.1738 41.6809 46.5614 43.9606 47.0674C45.4402 45.9046 46.7389 44.5857 47.9281 43.1591C47.413 40.9303 47.0184 38.6908 46.7389 36.4836C42.9468 39.6221 39.7136 42.9114 37.1544 45.8992Z" fill="white"/>
<path d="M33.8993 6.09406C32.0306 3.73073 30.6606 1.67425 29.8989 0.193804C28.9234 0.0861351 27.9425 0 27.0164 0C26.1067 0 25.2025 0.0699848 24.2654 0.161503C23.5256 1.64195 22.1392 3.70919 20.276 6.09406C25.2299 6.50858 29.9153 6.42783 33.8993 6.09406Z" fill="white"/>
<path d="M7.51308 36.4944C7.13496 39.3745 6.64176 41.7271 6.1376 43.3367C7.34868 44.7795 8.68032 46.0931 10.1599 47.2451C11.8094 46.7445 14.1768 46.2653 17.1031 45.91C14.533 42.9168 11.2943 39.6222 7.51308 36.4944Z" fill="white"/>
<path d="M6.165 19.8111C4.26344 21.2862 2.26872 22.7128 0.137 24.0102C0.06576 24.8177 0 25.6467 0 26.4058C0 27.2618 0.06576 28.1393 0.1644 29.0329C2.29064 30.3303 4.29084 31.7623 6.22528 33.232C6.55956 29.3183 6.61984 24.6885 6.165 19.8111Z" fill="white"/>
<path d="M11.6888 48.3433C14.7796 50.3944 18.2758 51.8049 21.9145 52.4347C21.0542 50.9973 19.7883 49.2262 18.1826 47.2612C15.5851 47.5466 13.3657 47.9288 11.6888 48.3433Z" fill="white"/>
<path d="M5.64439 37.9425C5.78139 37.0865 5.89647 36.1713 6.00607 35.2238C4.24151 33.8242 2.38927 32.4891 0.416473 31.2455C1.10147 34.9762 2.62491 38.5508 4.87719 41.6624C5.01419 41.1887 5.11283 40.6773 5.24983 40.1228C5.40875 39.3906 5.52383 38.6639 5.64439 37.9425Z" fill="white"/>
<path d="M32.0635 52.537C35.6255 51.8641 39.0286 50.4536 42.0426 48.4456C39.9273 48.0095 37.812 47.6919 35.7296 47.4496C34.1733 49.3877 32.9293 51.1212 32.0635 52.537Z" fill="white"/>
<path d="M20.4568 47.2182C22.194 49.4523 23.4982 51.385 24.2819 52.8331C25.208 52.9354 26.1232 53 27.0219 53C28.0138 53 29.044 52.9192 30.0907 52.7954C30.8579 51.3527 32.1512 49.4415 33.8774 47.2505C28.9892 46.8413 24.3696 46.9113 20.4568 47.2182Z" fill="white"/>
<path d="M35.0501 7.77368C32.6224 8.00517 29.9153 8.16667 27.0274 8.16667C24.5011 8.16667 21.8323 8.03747 19.1142 7.78445C16.2592 11.2137 12.4232 15.1059 7.93504 18.729C8.53236 24.5054 8.42824 29.9804 7.96792 34.4702C12.5163 38.1202 16.3852 42.0447 19.2732 45.5116C23.7777 45.0756 29.2577 44.9733 35.0172 45.5385C37.8942 42.077 41.7631 38.1578 46.295 34.5025C45.7087 28.726 45.8238 23.2296 46.2786 18.729C41.7686 15.1059 37.9326 11.2191 35.0501 7.77368ZM27.0164 44.0689C17.1414 44.0689 9.10776 36.1767 9.10776 26.4811C9.10776 16.7909 17.1414 8.90421 27.0164 8.90421C36.8694 8.90421 44.8976 16.7909 44.8976 26.4811C44.8976 36.1767 36.8694 44.0689 27.0164 44.0689Z" fill="white"/>
<path d="M4.87173 11.3322C2.59753 14.5084 1.04669 18.1584 0.383606 21.9591C0.537046 21.8568 0.695966 21.7545 0.849406 21.6468C1.97829 20.9524 3.05237 20.1825 4.11549 19.4181C4.76213 18.9551 5.37041 18.4545 6.00061 17.9592C5.73757 15.7789 5.35945 13.5501 4.87173 11.3322Z" fill="white"/>
<path d="M46.6403 16.6995C47.0129 13.8355 47.5061 11.5152 48.0212 9.93786C46.8266 8.47895 45.484 7.13847 44.0044 5.94873C42.4152 6.46554 40.0369 6.9662 37.0832 7.33228C39.6478 10.3147 42.8646 13.5771 46.6403 16.6995Z" fill="white"/>
<path d="M49.2159 11.5152C49.1008 11.9566 48.9748 12.4519 48.8706 12.9795C48.6898 13.7655 48.5364 14.6322 48.3994 15.5905C48.2788 16.3011 48.1856 17.0548 48.0925 17.8461C48.5857 18.2445 49.0789 18.6321 49.594 19.0143C50.827 19.8918 52.0874 20.764 53.4464 21.5984C52.7724 18.0076 51.3202 14.5407 49.2159 11.5152Z" fill="white"/>
<path d="M48.3446 36.6182C48.5966 38.2278 48.8378 39.8483 49.2323 41.4525C51.3092 38.4916 52.7505 35.0893 53.4464 31.5739C51.6052 32.7583 49.8516 34.018 48.1747 35.3262C48.224 35.7622 48.2952 36.1875 48.3446 36.6182Z" fill="white"/>
<path d="M47.9993 33.2697C49.8187 31.87 51.7203 30.5187 53.7424 29.2806C53.8575 28.3061 53.9397 27.3371 53.9397 26.4058C53.9397 25.5767 53.8574 24.7154 53.7533 23.8433C51.7148 22.6051 49.8132 21.2377 47.961 19.8218C47.6322 23.7464 47.5554 28.3815 47.9993 33.2697Z" fill="white"/>
<path d="M31.9868 0.468384C33.0554 2.13725 34.1733 3.71998 35.3076 5.22196C35.4994 5.45884 35.6693 5.67956 35.8611 5.9272C36.0036 5.91105 36.1296 5.90566 36.2666 5.88951C38.6669 5.60419 40.7054 5.23812 42.2563 4.82897C42.3275 4.81282 42.3768 4.80744 42.4426 4.79129C39.319 2.62714 35.7186 1.14131 31.9868 0.468384Z" fill="white"/>
<path d="M7.52952 16.651C11.2998 13.5232 14.4891 10.2608 17.0264 7.28377C14.6316 6.99307 12.204 6.60008 9.78728 6.05096C8.494 7.10074 7.27744 8.26894 6.19788 9.55559L6.22528 9.5502C6.80616 11.9189 7.2336 14.293 7.52952 16.651Z" fill="white"/>
<path d="M11.7491 4.67284C13.9576 5.18965 16.1989 5.57726 18.4128 5.86258C20.1445 3.73612 21.4432 1.86269 22.2981 0.393005C18.5334 1.05517 14.9056 2.51408 11.7491 4.67284Z" fill="white"/>
<path d="M90.8694 38.2009C88.9459 42.9168 84.4249 45.7862 79.049 45.7862C71.6784 45.7862 66.1655 40.6773 66.1655 33.0221C66.1655 25.5068 71.6784 20.3656 79.049 20.3656C84.814 20.3656 88.9404 23.4449 90.5734 27.2887L85.6688 28.6184C84.529 26.7288 82.3589 24.9469 78.8353 24.9469C74.243 24.9469 71.1468 28.1662 71.1468 33.0544C71.1468 38.0556 74.4184 41.2049 78.8024 41.2049C82.3206 41.2049 84.814 39.3907 85.9922 36.9412L90.8694 38.2009Z" fill="white"/>
<path d="M114.006 34.664C114.006 41.867 109.945 45.7862 103.462 45.7862C96.9193 45.7862 92.897 41.867 92.897 34.664V20.8555H97.9166V34.524C97.9166 39.1053 99.7634 41.2049 103.501 41.2049C107.244 41.2049 109.09 39.1053 109.09 34.524V20.8555H114.006V34.664Z" fill="white"/>
<path d="M120.735 37.8456C121.124 40.2574 123.295 41.5117 126.352 41.5117C129.054 41.5117 130.731 40.4996 130.731 38.4755C130.731 35.5738 127.383 35.6115 124.286 34.8739C120.905 34.1041 116.669 32.6721 116.669 27.5686C116.669 22.815 120.297 20.3602 125.782 20.3602C130.698 20.3602 134.255 22.3574 135.564 26.6588L130.83 27.8862C130.188 25.8244 128.555 24.6669 125.667 24.6669C122.927 24.6669 121.716 25.7167 121.716 27.4286C121.716 29.8835 124.341 30.3303 127.843 31.0355C131.542 31.7354 135.745 33.1297 135.745 38.4808C135.745 43.3421 132.254 45.7916 126.341 45.7916C122.072 45.7916 117.195 44.4941 115.99 39.1107L120.735 37.8456Z" fill="white"/>
<path d="M161.556 38.2009C159.638 42.9168 155.117 45.7862 149.741 45.7862C142.37 45.7862 136.852 40.6773 136.852 33.0221C136.852 25.5068 142.37 20.3656 149.741 20.3656C155.506 20.3656 159.638 23.4449 161.265 27.2887L156.355 28.6184C155.221 26.7288 153.051 24.9469 149.527 24.9469C144.93 24.9469 141.833 28.1662 141.833 33.0544C141.833 38.0556 145.11 41.2049 149.489 41.2049C153.013 41.2049 155.506 39.3907 156.679 36.9412L161.556 38.2009Z" fill="white"/>
<path d="M168.784 40.435L166.899 45.334H161.665L171.628 20.8608H177.218L187.186 45.334H181.881L179.991 40.435H168.784ZM176.187 30.6426C175.327 28.543 174.483 26.3789 174.439 26.3412H174.335C174.297 26.3789 173.442 28.5107 172.593 30.6426L170.494 36.026H178.248L176.187 30.6426Z" fill="white"/>
<path d="M196.842 25.3614V45.3286H191.882V25.3614H183.947V20.8555H204.771V25.3614H196.842Z" fill="white"/>
<path d="M207.122 20.8555H212.071V40.8227H223.885V45.3286H207.122V20.8555Z" fill="white"/>
<path d="M231.925 40.435L230.039 45.334H224.812L234.774 20.8608H240.369L250.332 45.334H245.027L243.142 40.435H231.925ZM239.334 30.6426C238.479 28.543 237.629 26.3789 237.596 26.3412H237.481C237.448 26.3789 236.594 28.5107 235.744 30.6426L233.645 36.026H241.405L239.334 30.6426Z" fill="white"/>
<path d="M257.056 28.9629H256.946C256.946 29.0006 257.023 31.94 257.023 35.0516V45.3286H252.08V20.8555H257.094L269.019 36.9735H269.123C269.123 36.9358 269.052 33.8996 269.052 31.2078V20.8555H274V45.3286H268.98L257.056 28.9629Z" fill="white"/>
<path d="M72.9004 11.2568C73.7772 11.359 74.9883 11.9781 74.9883 13.4209C74.9883 14.8314 73.8814 15.8112 72.051 15.8112H68.489V7.19226H71.7935C73.3388 7.19226 74.3746 8.16128 74.3746 9.30257C74.3746 10.5192 73.6403 11.0253 72.895 11.2083V11.2568H72.9004ZM71.6236 10.9607C72.5333 10.9607 73.5087 10.4762 73.5087 9.40486C73.5087 8.58657 72.8018 7.94594 71.6455 7.94594H69.3549V10.9661H71.6236V10.9607ZM72.0291 15.0521C73.2018 15.0521 74.0951 14.4491 74.0951 13.3994C74.0951 12.3119 73.1251 11.6659 71.9524 11.6659H69.3494V15.0521H72.0291Z" fill="white"/>
<path d="M77.9804 13.2809L76.9337 15.8058H76.024L79.7395 7.18689H80.7204L84.4194 15.8058H83.5097L82.4411 13.2809H77.9804ZM81.2136 10.3577C80.5396 8.77501 80.2546 7.98364 80.2327 7.97826H80.1998C80.1998 7.98902 79.8601 8.85037 79.1696 10.4654L78.3092 12.5273H82.1123L81.2136 10.3577Z" fill="white"/>
<path d="M92.4147 15.8058L86.9895 8.48429H86.9566C86.9566 8.50044 86.9895 9.42101 86.9895 10.4654V15.8058H86.1292V7.19226H87.0169L92.4147 14.4222H92.4421C92.4421 14.4115 92.4147 13.5178 92.4147 12.5326V7.19764H93.286V15.8165H92.4147V15.8058Z" fill="white"/>
<path d="M103.983 13.4802C103.249 14.9929 101.709 15.9888 99.8182 15.9888C97.2042 15.9888 95.215 14.0885 95.215 11.499C95.215 8.91499 97.2042 7.02002 99.8018 7.02002C101.495 7.02002 103.156 7.806 103.906 9.561L103.079 9.77634C102.86 9.40488 102.043 7.82215 99.8511 7.82215C97.681 7.82215 96.1028 9.31337 96.1028 11.5044C96.1028 13.7009 97.6974 15.1975 99.8237 15.1975C101.402 15.1975 102.564 14.363 103.161 13.2594L103.983 13.4802Z" fill="white"/>
<path d="M109.951 7.02002C112.515 7.02002 114.527 8.91499 114.527 11.5152C114.527 14.0939 112.515 15.9942 109.951 15.9942C107.397 15.9942 105.391 14.0939 105.391 11.5152C105.391 8.91499 107.397 7.02002 109.951 7.02002ZM109.951 15.1921C112.017 15.1921 113.644 13.7009 113.644 11.5152C113.644 9.31337 112.017 7.82215 109.951 7.82215C107.879 7.82215 106.274 9.31337 106.274 11.5152C106.274 13.7009 107.879 15.1921 109.951 15.1921Z" fill="white"/>
</svg>
