<svg width="194" height="82" viewBox="0 0 194 82" fill="none" xmlns="http://www.w3.org/2000/svg">
<g clip-path="url(#clip0_23_6146)">
<path d="M137.041 28.3663H133.682V33.1947H137.041V28.3663Z" fill="white"/>
<path d="M141.899 28.3663H138.539V33.1947H141.899V28.3663Z" fill="white"/>
<path d="M137.041 34.4933H133.682V39.3218H137.041V34.4933Z" fill="white"/>
<path d="M141.899 34.4933H138.539V39.3218H141.899V34.4933Z" fill="white"/>
<path d="M0.126831 52.5005H3.68084V59.2403H9.82548V52.5005H13.366V70.3639H9.82548V62.5316H3.68084V70.3639H0.126831V52.5005Z" fill="white"/>
<path d="M23.5882 56.8139C24.8727 56.8139 26.079 57.1256 27.2097 57.7492C28.3404 58.3727 29.2228 59.2186 29.857 60.2868C30.4911 61.355 30.8069 62.5099 30.8069 63.7489C30.8069 64.9878 30.4884 66.1617 29.8489 67.2462C29.212 68.3306 28.3404 69.1792 27.2393 69.7892C26.1383 70.3992 24.924 70.7056 23.599 70.7056C21.6479 70.7056 19.9802 70.0305 18.6012 68.6831C17.2196 67.3357 16.5314 65.6982 16.5314 63.7706C16.5314 61.7047 17.3113 59.9859 18.8711 58.6086C20.2393 57.4103 21.8125 56.8112 23.5882 56.8112V56.8139ZM23.6449 59.9343C22.5843 59.9343 21.6992 60.2922 20.9949 61.0079C20.2878 61.7237 19.937 62.64 19.937 63.7597C19.937 64.8794 20.2851 65.8391 20.9841 66.5521C21.6803 67.2652 22.5654 67.6203 23.6341 67.6203C24.7027 67.6203 25.5932 67.2597 26.3029 66.5386C27.0127 65.8174 27.3689 64.8902 27.3689 63.757C27.3689 62.6238 27.0208 61.702 26.3218 60.9944C25.6229 60.2868 24.7324 59.9316 23.6449 59.9316V59.9343Z" fill="white"/>
<path d="M33.5729 57.1527H36.9893V58.6709C37.5722 58.0474 38.2225 57.5811 38.9376 57.2747C39.65 56.9684 40.4299 56.8138 41.2719 56.8138C42.1138 56.8138 42.891 57.0172 43.5765 57.4211C44.2619 57.8251 44.8124 58.4161 45.228 59.1942C45.7704 58.4161 46.4369 57.8251 47.2249 57.4211C48.0129 57.0172 48.8765 56.8138 49.8102 56.8138C50.7439 56.8138 51.629 57.0334 52.3657 57.4699C53.0997 57.9064 53.6286 58.4785 53.9498 59.1833C54.2709 59.8882 54.4328 61.0323 54.4328 62.621V70.3694H50.9921V63.6675C50.9921 62.171 50.8005 61.157 50.4173 60.6257C50.0341 60.0943 49.4566 59.8313 48.6902 59.8313C48.1074 59.8313 47.5838 59.994 47.1197 60.3166C46.6555 60.6392 46.3128 61.0865 46.0861 61.6586C45.8622 62.2306 45.7488 63.147 45.7488 64.4104V70.3721H42.3081V63.9712C42.3081 62.7891 42.2191 61.9324 42.0383 61.4037C41.8575 60.8724 41.5876 60.4793 41.2287 60.219C40.8698 59.9587 40.4353 59.8313 39.9253 59.8313C39.3559 59.8313 38.8405 59.994 38.3763 60.322C37.9122 60.6501 37.5641 61.1082 37.3347 61.6993C37.1053 62.2903 36.9893 63.2202 36.9893 64.4917V70.3694H33.5729V57.1582V57.1527Z" fill="white"/>
<path d="M71.3231 64.7167H60.3508C60.51 65.6548 60.9337 66.403 61.6218 66.9561C62.3099 67.5119 63.187 67.7884 64.2556 67.7884C65.532 67.7884 66.6276 67.3546 67.5452 66.4898L70.4218 67.802C69.704 68.7888 68.8459 69.5208 67.8447 69.9925C66.8435 70.4643 65.6562 70.7028 64.2799 70.7028C62.1453 70.7028 60.4047 70.0495 59.0609 68.7427C57.717 67.436 57.0477 65.7985 57.0477 63.8302C57.0477 61.8619 57.717 60.1404 59.0555 58.8092C60.394 57.4781 62.0725 56.8112 64.091 56.8112C66.2337 56.8112 67.9769 57.4781 69.3208 58.8092C70.6647 60.1404 71.3366 61.8999 71.3366 64.085L71.3231 64.7167ZM67.9068 62.1059C67.6801 61.3685 67.2348 60.7694 66.571 60.3085C65.9071 59.8476 65.1353 59.6171 64.2583 59.6171C63.3057 59.6171 62.4692 59.8774 61.7513 60.3952C61.3007 60.7179 60.8824 61.2899 60.4992 62.1086H67.9068V62.1059Z" fill="white"/>
<path d="M95.6021 55.6399L93.1518 57.9064C91.4841 56.1957 89.6086 55.3417 87.5253 55.3417C85.7659 55.3417 84.2843 55.9246 83.0808 57.0931C81.8772 58.2588 81.2754 59.6984 81.2754 61.4091C81.2754 62.5993 81.5426 63.6566 82.0742 64.5811C82.6085 65.5056 83.3614 66.2295 84.3383 66.7581C85.3125 67.2841 86.3973 67.5471 87.5901 67.5471C88.6074 67.5471 89.5358 67.3627 90.3777 66.994C91.2197 66.6253 92.1453 65.9557 93.1545 64.9824L95.5293 67.3871C94.1692 68.6749 92.8847 69.5668 91.6757 70.0657C90.4668 70.5645 89.0851 70.8112 87.5334 70.8112C84.6729 70.8112 82.3306 69.9301 80.5063 68.1706C78.6848 66.4111 77.7727 64.1528 77.7727 61.401C77.7727 59.6198 78.1883 58.0365 79.0167 56.6539C79.8479 55.2685 81.0353 54.1569 82.5815 53.3138C84.1278 52.4733 85.7955 52.0504 87.5793 52.0504C89.0986 52.0504 90.5585 52.3622 91.9645 52.983C93.3704 53.6066 94.5821 54.4904 95.5994 55.6372L95.6021 55.6399Z" fill="white"/>
<path d="M97.4911 57.1527H100.419V58.8173C100.735 58.1613 101.159 57.6651 101.682 57.3235C102.208 56.9846 102.783 56.8138 103.409 56.8138C103.852 56.8138 104.313 56.9277 104.799 57.1527L103.736 60.0075C103.336 59.8123 103.004 59.7147 102.748 59.7147C102.222 59.7147 101.779 60.0319 101.415 60.6609C101.051 61.2899 100.87 62.5316 100.87 64.3778L100.883 65.0204V70.3639H97.4911V57.1527Z" fill="white"/>
<path d="M120.127 64.7167H109.154C109.314 65.6548 109.737 66.403 110.425 66.9561C111.114 67.5119 111.991 67.7884 113.059 67.7884C114.336 67.7884 115.431 67.3546 116.349 66.4898L119.228 67.802C118.51 68.7888 117.652 69.5208 116.651 69.9925C115.65 70.467 114.462 70.7028 113.086 70.7028C110.952 70.7028 109.211 70.0495 107.867 68.7427C106.523 67.436 105.854 65.7985 105.854 63.8302C105.854 61.8619 106.523 60.1404 107.862 58.8092C109.2 57.4781 110.879 56.8112 112.897 56.8112C115.04 56.8112 116.783 57.4781 118.127 58.8092C119.471 60.1404 120.143 61.8999 120.143 64.085L120.129 64.7167H120.127ZM116.71 62.1059C116.484 61.3685 116.038 60.7694 115.375 60.3085C114.711 59.8476 113.939 59.6171 113.062 59.6171C112.109 59.6171 111.273 59.8774 110.555 60.3952C110.104 60.7179 109.686 61.2899 109.303 62.1086H116.71V62.1059Z" fill="white"/>
<path d="M132.939 57.1527H136.356V70.3639H132.939V68.9677C132.273 69.5831 131.604 70.0278 130.934 70.2989C130.263 70.57 129.537 70.7055 128.754 70.7055C126.997 70.7055 125.475 70.044 124.193 68.721C122.912 67.398 122.269 65.7523 122.269 63.7841C122.269 61.8158 122.89 60.0726 124.131 58.7685C125.373 57.4645 126.881 56.8138 128.657 56.8138C129.475 56.8138 130.241 56.963 130.956 57.2639C131.674 57.5648 132.335 58.0122 132.942 58.6113V57.1527H132.939ZM129.348 59.872C128.293 59.872 127.416 60.2353 126.717 60.9591C126.018 61.683 125.67 62.6129 125.67 63.7461C125.67 64.8794 126.026 65.8255 126.735 66.563C127.445 67.3004 128.322 67.6691 129.361 67.6691C130.4 67.6691 131.323 67.3058 132.03 66.5819C132.737 65.8581 133.091 64.9092 133.091 63.7353C133.091 62.5614 132.737 61.6559 132.03 60.9429C131.323 60.2298 130.43 59.8747 129.348 59.8747V59.872Z" fill="white"/>
<path d="M140.223 52.2836H143.639V57.1527H145.666V60.0075H143.639V70.3666H140.223V60.0075H138.472V57.1527H140.223V52.2836Z" fill="white"/>
<path d="M148.823 51.7115C149.422 51.7115 149.935 51.923 150.364 52.3432C150.793 52.7635 151.006 53.2731 151.006 53.8723C151.006 54.4715 150.793 54.9676 150.37 55.3851C149.946 55.8026 149.439 56.0114 148.848 56.0114C148.257 56.0114 147.722 55.7999 147.293 55.3742C146.864 54.9486 146.651 54.4335 146.651 53.8262C146.651 53.2189 146.864 52.7445 147.288 52.3324C147.711 51.9203 148.224 51.7143 148.823 51.7143V51.7115ZM147.115 57.1527H150.531V70.3639H147.115V57.1527Z" fill="white"/>
<path d="M160.03 56.8139C161.315 56.8139 162.521 57.1256 163.652 57.7492C164.783 58.3727 165.665 59.2186 166.299 60.2868C166.933 61.355 167.249 62.5099 167.249 63.7489C167.249 64.9878 166.931 66.1617 166.291 67.2462C165.652 68.3306 164.783 69.1792 163.682 69.7892C162.581 70.3992 161.366 70.7056 160.041 70.7056C158.09 70.7056 156.422 70.0305 155.043 68.6831C153.662 67.3357 152.974 65.6982 152.974 63.7706C152.974 61.7047 153.754 59.9859 155.313 58.6086C156.682 57.4103 158.255 56.8112 160.03 56.8112V56.8139ZM160.084 59.9343C159.024 59.9343 158.139 60.2922 157.434 61.0079C156.727 61.7237 156.377 62.64 156.377 63.7597C156.377 64.8794 156.725 65.8391 157.424 66.5521C158.12 67.2652 159.005 67.6203 160.074 67.6203C161.142 67.6203 162.033 67.2597 162.743 66.5386C163.452 65.8174 163.808 64.8902 163.808 63.757C163.808 62.6238 163.46 61.702 162.761 60.9944C162.065 60.2868 161.172 59.9316 160.084 59.9316V59.9343Z" fill="white"/>
<path d="M170.039 57.1527H173.456V58.5083C174.23 57.8739 174.932 57.4347 175.561 57.1853C176.189 56.9358 176.832 56.8138 177.49 56.8138C178.839 56.8138 179.986 57.272 180.925 58.1857C181.716 58.9637 182.113 60.1133 182.113 61.6342V70.3666H178.734V64.5812C178.734 63.0033 178.661 61.9568 178.516 61.439C178.37 60.9212 178.116 60.5281 177.755 60.2569C177.393 59.9858 176.945 59.8503 176.413 59.8503C175.723 59.8503 175.129 60.0753 174.635 60.5226C174.141 60.9727 173.796 61.5935 173.604 62.3852C173.504 62.7972 173.456 63.6919 173.456 65.0664V70.3666H170.039V57.1554V57.1527Z" fill="white"/>
<path d="M193.752 58.999L191.636 61.0513C190.778 60.2244 189.998 59.8123 189.296 59.8123C188.913 59.8123 188.611 59.8909 188.395 60.0482C188.179 60.2054 188.069 60.4033 188.069 60.6365C188.069 60.8154 188.136 60.9781 188.276 61.1272C188.414 61.2763 188.754 61.4823 189.296 61.7399L190.549 62.3472C191.865 62.9789 192.772 63.6214 193.263 64.2775C193.754 64.9336 194.003 65.7035 194.003 66.5846C194.003 67.7585 193.557 68.7373 192.67 69.5235C191.782 70.3097 190.589 70.7001 189.097 70.7001C187.111 70.7001 185.526 69.9464 184.342 68.4417L186.444 66.2186C186.843 66.6714 187.313 67.0374 187.853 67.3166C188.39 67.5959 188.867 67.7369 189.286 67.7369C189.736 67.7369 190.098 67.6311 190.373 67.4197C190.648 67.2082 190.786 66.9669 190.786 66.6904C190.786 66.1807 190.289 65.6818 189.296 65.1965L188.144 64.6381C185.942 63.5618 184.841 62.2143 184.841 60.5931C184.841 59.5493 185.257 58.6574 186.085 57.9145C186.916 57.1744 187.977 56.803 189.269 56.803C190.155 56.803 190.986 56.99 191.766 57.3669C192.545 57.7437 193.207 58.2832 193.749 58.9881L193.752 58.999Z" fill="white"/>
<path d="M49.6429 77.2449L48.8738 77.9552C48.3502 77.4184 47.7647 77.1527 47.1116 77.1527C46.5611 77.1527 46.0969 77.3344 45.7191 77.7004C45.3413 78.0664 45.1524 78.5164 45.1524 79.0532C45.1524 79.4274 45.2361 79.7581 45.4034 80.0482C45.5707 80.3383 45.8082 80.566 46.1131 80.7287C46.4181 80.8941 46.7581 80.9754 47.1305 80.9754C47.4489 80.9754 47.7404 80.9185 48.0048 80.8019C48.2693 80.6853 48.558 80.4766 48.8738 80.1702L49.6186 80.9239C49.1922 81.3278 48.7901 81.6071 48.4123 81.7643C48.0345 81.9216 47.6 81.9975 47.1143 81.9975C46.2184 81.9975 45.4844 81.721 44.9123 81.1706C44.3402 80.6202 44.0568 79.9126 44.0568 79.0505C44.0568 78.492 44.1864 77.9959 44.4481 77.5621C44.7072 77.1283 45.0796 76.7786 45.5653 76.5156C46.0511 76.2527 46.5719 76.1198 47.1305 76.1198C47.6054 76.1198 48.0642 76.2174 48.5041 76.4126C48.9439 76.6078 49.3244 76.8843 49.6429 77.2449Z" fill="white"/>
<path d="M62.3693 76.1196C63.1843 76.1196 63.8859 76.407 64.4742 76.9791C65.0625 77.5538 65.3539 78.2506 65.3539 79.0748C65.3539 79.8989 65.0652 80.5821 64.485 81.1487C63.9048 81.7154 63.2032 81.9973 62.3774 81.9973C61.5516 81.9973 60.7933 81.7072 60.2186 81.1271C59.6438 80.5469 59.3604 79.8556 59.3604 79.0558C59.3604 78.5217 59.4926 78.0283 59.7598 77.5782C60.027 77.1282 60.394 76.773 60.8608 76.51C61.3277 76.2471 61.8296 76.1169 62.3693 76.1169V76.1196ZM62.3558 77.1634C61.8215 77.1634 61.3735 77.3451 61.0092 77.7029C60.6449 78.0635 60.4641 78.5217 60.4641 79.0775C60.4641 79.6956 60.6935 80.1863 61.1496 80.5469C61.5058 80.8288 61.9133 80.9698 62.3747 80.9698C62.8955 80.9698 63.3381 80.7882 63.7051 80.4222C64.0721 80.0562 64.2556 79.6061 64.2556 79.072C64.2556 78.538 64.0721 78.0879 63.7024 77.7192C63.3327 77.3505 62.8847 77.1661 62.3558 77.1661V77.1634Z" fill="white"/>
<path d="M75.989 76.2606H77.0576L78.3934 80.1646L79.7427 76.2606H80.8113L81.7774 81.859H80.7169L80.0989 78.3238L78.8737 81.859H77.905L76.6906 78.3238L76.0564 81.859H74.9851L75.9836 76.2606H75.989Z" fill="white"/>
<path d="M91.6946 76.2606H92.8577C93.4865 76.2606 93.9425 76.3175 94.2205 76.4287C94.4984 76.5426 94.7197 76.7242 94.8789 76.9763C95.0408 77.2285 95.1191 77.5321 95.1191 77.8846C95.1191 78.275 95.0138 78.6003 94.8034 78.8578C94.5929 79.1154 94.3068 79.297 93.9452 79.3974C93.7347 79.4543 93.3488 79.4841 92.7875 79.4841V81.8536H91.6892V76.2552L91.6946 76.2606ZM92.7902 78.4485H93.1383C93.4136 78.4485 93.6025 78.4295 93.7104 78.3915C93.8184 78.3536 93.902 78.2912 93.9641 78.2018C94.0262 78.1123 94.0559 78.0066 94.0559 77.8818C94.0559 77.665 93.9695 77.5077 93.7968 77.4074C93.67 77.3342 93.4379 77.2963 93.0979 77.2963H92.7875V78.4458L92.7902 78.4485Z" fill="white"/>
<path d="M106.996 76.2606H108.11L110.328 81.859H109.187L108.736 80.7068H106.383L105.913 81.859H104.772L106.996 76.2606ZM107.56 77.7463L106.785 79.6685H108.329L107.56 77.7463Z" fill="white"/>
<path d="M120.221 76.2606H121.274L123.74 79.945V76.2606H124.838V81.859H123.783L121.32 78.1882V81.859H120.221V76.2606Z" fill="white"/>
<path d="M134.788 76.2606H135.967L137.044 78.275L138.115 76.2606H139.278L137.592 79.4353V81.859H136.485V79.4353L134.791 76.2606H134.788Z" fill="white"/>
<path d="M166.21 49.8599H168.755L168.752 49.8545H166.207L166.21 49.8599Z" fill="white"/>
<path d="M166.207 49.8544H168.752L160.64 36.7815V40.8807L166.207 49.8544Z" fill="white"/>
<path d="M137.843 0.0379554L137.819 0L108.075 47.6856H0V49.8545H109.27L137.813 4.09105L137.843 4.13714L155.783 33.051V28.9519L137.843 0.0379554Z" fill="white"/>
<path d="M115.296 49.8599H117.868L117.871 49.8545H115.299L115.296 49.8599Z" fill="white"/>
<path d="M157.623 49.8599H159.291V49.8545H157.621L157.623 49.8599Z" fill="white"/>
<path d="M157.132 18.9696V31.1262V35.2254V45.0585L137.891 14.8216L137.843 14.8975L115.299 49.8545H117.871L137.843 18.8855L137.881 18.8286L157.621 49.8545H159.291V38.7064V34.6045V18.9696H157.132Z" fill="white"/>
</g>
<defs>
<clipPath id="clip0_23_6146">
<rect width="194" height="82" fill="white"/>
</clipPath>
</defs>
</svg>
