<svg width="80" height="80" viewBox="0 0 80 80" fill="none" xmlns="http://www.w3.org/2000/svg">
<g clip-path="url(#clip0_192_1036)">
<path d="M77.8667 2.13333V77.8667H2.13333V2.13333H77.8667ZM80 0H0V80H80V0Z" fill="white"/>
<path d="M13.9199 32.6755V42.5778H10.8088V32.6755H13.9199Z" fill="white"/>
<path d="M27.2178 32.6755V42.5778H24.1244V37.6533L22.5955 42.5778H19.9466L18.4178 37.6533V42.5778H15.3066V32.6755H19.1111L21.2978 38.6133L23.4133 32.6755H27.2H27.2178Z" fill="white"/>
<path d="M36.2667 37.7778C35.9823 38.2933 35.5556 38.6844 34.9867 38.9866C34.4178 39.2889 33.7423 39.4311 32.9423 39.4311H31.7156V42.5778H28.6045V32.6755H32.9423C34.1512 32.6755 35.0756 32.9778 35.7334 33.6C36.3734 34.2222 36.7112 35.04 36.7112 36.0711C36.7112 37.1022 36.5689 37.2622 36.2845 37.7778H36.2667ZM33.5645 36.0889C33.5645 35.4844 33.2445 35.1822 32.6045 35.1822H31.7156V36.9955H32.6045C33.2445 36.9955 33.5645 36.6933 33.5645 36.0889Z" fill="white"/>
<path d="M44.0356 41.0844H40.7289L40.2311 42.5778H36.9778L40.6044 32.6755H44.1778L47.7867 42.5778H44.5156L44.0178 41.0844H44.0356ZM43.2711 38.7555L42.3822 36L41.4933 38.7555H43.2889H43.2711Z" fill="white"/>
<path d="M48.8 35.0044C49.1912 34.24 49.76 33.6533 50.5067 33.2267C51.2356 32.8 52.1067 32.5867 53.1023 32.5867C54.0978 32.5867 54.72 32.7467 55.3956 33.0667C56.0712 33.3867 56.6223 33.8489 57.0489 34.4356C57.4756 35.0222 57.76 35.7156 57.9023 36.4978H54.6312C54.4889 36.1778 54.2756 35.9111 53.9912 35.7333C53.7245 35.5556 53.4045 35.4667 53.0489 35.4667C52.5334 35.4667 52.1067 35.6622 51.8045 36.0533C51.5023 36.4444 51.3423 36.9778 51.3423 37.6356C51.3423 38.2933 51.5023 38.8267 51.8045 39.2178C52.1067 39.6089 52.5156 39.8044 53.0489 39.8044C53.5823 39.8044 53.7245 39.7156 53.9912 39.5378C54.2578 39.36 54.4712 39.1111 54.6312 38.7733H57.9023C57.76 39.5556 57.4756 40.2489 57.0489 40.8356C56.6223 41.4222 56.0712 41.8844 55.3956 42.2044C54.72 42.5244 53.9556 42.6844 53.1023 42.6844C52.2489 42.6844 51.2356 42.4711 50.5067 42.0444C49.7778 41.6178 49.2089 41.0311 48.8 40.2667C48.4089 39.5022 48.2134 38.6311 48.2134 37.6533C48.2134 36.6756 48.4089 35.8044 48.8 35.04V35.0044Z" fill="white"/>
<path d="M66.7733 32.6755V35.1289H64.1422V42.56H61.0311V35.1289H58.4355V32.6755H66.7733Z" fill="white"/>
<path d="M27.7866 46.1689V66.0444H22.9511V57.8667H15.4133V66.0444H10.5778V46.1689H15.4133V53.9555H22.9511V46.1689H27.7866Z" fill="white"/>
<path d="M36.0355 46.1688V58.0622C36.0355 59.2533 36.32 60.1599 36.9067 60.8177C37.4933 61.4577 38.3467 61.7777 39.4844 61.7777C40.6222 61.7777 41.4933 61.4577 42.0978 60.8177C42.7022 60.1777 43.0044 59.2533 43.0044 58.0622V46.1688H47.84V58.0444C47.84 59.8222 47.4667 61.3155 46.7022 62.5422C45.9555 63.7688 44.9244 64.6933 43.6622 65.3155C42.3822 65.9377 40.96 66.2577 39.3955 66.2577C37.8311 66.2577 36.4266 65.9555 35.1822 65.3333C33.9378 64.711 32.96 63.7866 32.2489 62.5599C31.5378 61.3155 31.1644 59.8222 31.1644 58.0444V46.1688H36H36.0355Z" fill="white"/>
<path d="M66.0444 57.5644C66.7377 58.4533 67.0932 59.4844 67.0932 60.6399C67.0932 62.2933 66.5066 63.6266 65.351 64.5866C64.1955 65.5644 62.5777 66.0444 60.4977 66.0444H51.2355V46.1688H60.1777C62.2044 46.1688 63.7866 46.631 64.9244 47.5555C66.0621 48.4799 66.631 49.7422 66.631 51.3244C66.631 52.9066 66.3288 53.4755 65.7066 54.2399C65.0844 55.0222 64.2844 55.5555 63.2532 55.8577C64.4088 56.1066 65.3332 56.6755 66.0266 57.5644H66.0444ZM56.0888 54.2044H59.2532C60.0532 54.2044 60.6577 54.0266 61.0844 53.6888C61.511 53.3333 61.7244 52.8177 61.7244 52.1422C61.7244 51.4666 61.511 50.951 61.0844 50.5777C60.6577 50.2222 60.0532 50.0444 59.2532 50.0444H56.0888V54.2044ZM61.5288 61.5822C61.9732 61.2088 62.1866 60.6755 62.1866 59.9822C62.1866 59.2888 61.9555 58.7377 61.4932 58.3466C61.031 57.9555 60.391 57.7599 59.5732 57.7599H56.0532V62.151H59.6266C60.4444 62.151 61.0666 61.9733 61.511 61.5999L61.5288 61.5822Z" fill="white"/>
</g>
<defs>
<clipPath id="clip0_192_1036">
<rect width="80" height="80" fill="white"/>
</clipPath>
</defs>
</svg>
