<svg width="459" height="512" viewBox="0 0 459 512" fill="none" xmlns="http://www.w3.org/2000/svg">
<g clip-path="url(#clip0_21_6000)">
<g style="mix-blend-mode:screen">
<path d="M135.457 384.872C136.312 378.448 133.134 371.229 125.126 369.027L45.7839 347.247C44.378 346.88 42.7887 346.758 41.0772 346.941L36.7372 396.863C36.5538 398.82 37.2873 400.656 38.7543 401.941C40.2214 403.225 42.0552 403.776 44.0112 403.409L93.0348 393.498L135.457 384.933V384.872Z" fill="#88E9FD"/>
</g>
<path d="M32.1527 401.206L36.0037 356.913L36.7983 347.859C33.4975 349.021 30.869 351.285 29.2797 354.283L1.71161 405.366C0.489073 407.569 -0.0610664 409.894 6.02845e-05 412.341L27.3237 406.774C29.9521 406.162 31.9693 403.959 32.2138 401.206H32.1527Z" fill="url(#paint0_linear_21_6000)"/>
<path d="M36.8595 347.859L36.0648 356.975L36.8595 347.859Z" fill="#99C8CD"/>
<path d="M126.227 211.432L120.42 207.333L117.608 205.375C116.569 204.641 115.346 204.274 114.124 204.274C113.634 204.274 113.207 204.274 112.718 204.457C111.006 204.886 109.539 205.987 108.683 207.516L77.4475 265.391L126.838 221.098C128.244 219.813 128.977 218.039 128.855 216.142C128.733 214.246 127.816 212.533 126.288 211.493L126.227 211.432Z" fill="url(#paint1_linear_21_6000)" style="mix-blend-mode:screen"/>
<path d="M214.371 142.606L225.496 132.634C226.78 131.472 227.513 129.759 227.513 128.046V0C224.396 0.428247 221.523 1.77417 219.322 4.03776C218.344 5.01661 217.489 6.17899 216.755 7.46374L116.569 192.895C115.04 195.648 115.896 199.074 118.402 200.848L131.667 210.208C134.051 211.921 137.168 211.738 139.369 209.78L142.242 207.21L214.31 142.606H214.371Z" fill="url(#paint2_linear_21_6000)" style="mix-blend-mode:screen"/>
<path d="M225.741 286.008C224.579 284.846 222.99 284.173 221.34 284.173L204.163 284.295H200.251C196.767 284.295 193.221 284.356 189.737 284.417C184.602 284.417 179.468 284.478 174.333 284.54C168.159 284.54 161.986 284.662 155.812 284.662L136.007 284.846L116.63 285.029C110.884 285.029 105.199 285.151 99.453 285.151L86.2497 285.274C83.4379 285.274 80.626 285.274 77.8142 285.335C79.159 287.048 80.9928 288.394 83.0711 289.189L219.2 341.435C221.095 342.169 223.234 341.925 224.946 340.762C226.658 339.6 227.636 337.703 227.636 335.623V290.352C227.636 288.7 226.963 287.109 225.802 285.947L225.741 286.008Z" fill="url(#paint3_linear_21_6000)" style="mix-blend-mode:screen"/>
<path d="M231.731 265.941V273.772C231.731 277.198 234.482 279.951 237.905 279.951H379.046C381.247 279.951 383.264 278.85 384.364 276.892C385.465 274.996 385.526 272.732 384.487 270.775C380.819 263.923 377.09 257.132 373.423 250.28C364.254 233.333 355.085 216.326 345.916 199.38C334.118 177.539 322.321 155.698 310.523 133.858C298.97 112.445 287.356 90.9719 275.803 69.5595C267.307 53.7756 258.81 38.0528 250.253 22.2688C245.974 14.3157 241.817 1.52943 231.67 -0.122375V265.758L231.731 265.941Z" fill="url(#paint4_linear_21_6000)" style="mix-blend-mode:overlay"/>
<path d="M309.973 328.282C309.79 330.668 310.951 332.809 313.03 334.033L457.716 418.092C459.55 413.993 459.428 409.588 457.288 405.611L397.507 294.879C396.406 292.86 394.328 291.636 392.127 291.636C391.333 291.636 390.538 291.759 389.805 292.126L313.763 323.082C311.563 324 310.157 325.957 309.973 328.343V328.282Z" fill="#96ECFD"/>
<path d="M310.951 337.642L299.704 331.157C298.176 330.24 296.342 330.117 294.569 330.668L255.876 343.76C252.82 344.8 251.658 347.431 251.658 349.511C251.658 351.652 252.636 354.283 255.632 355.445L439.378 425.922C443.902 427.635 448.609 427.085 452.582 424.393C453.682 423.659 454.66 422.741 455.516 421.64L373.239 373.86L310.951 337.703V337.642Z" fill="url(#paint5_linear_21_6000)" style="mix-blend-mode:overlay"/>
<path d="M0.672485 416.44L13.937 413.687L0.672485 416.44Z" fill="#78B8B9"/>
<path d="M209.97 265.574L217.672 271.019C219.628 272.426 222.073 272.549 224.213 271.447C226.352 270.346 227.575 268.266 227.575 265.88V150.315C227.575 147.317 225.68 145.359 223.846 144.564C221.584 143.585 219.078 143.952 217.183 145.604L151.533 204.457L145.115 210.208C143.709 211.493 142.914 213.328 143.036 215.225C143.159 217.121 144.076 218.834 145.665 219.997L210.092 265.574H209.97Z" fill="#88E9FD"/>
<path d="M214.371 142.606L142.303 207.21L214.371 142.606Z" fill="white"/>
<path d="M30.869 415.277C30.869 415.277 30.869 414.788 30.8079 414.543C30.5634 412.952 29.402 411.729 27.8738 411.239C27.3848 411.117 26.8347 411.056 25.7344 411.239C22.0057 412.035 18.2769 412.769 14.4871 413.503L13.8758 413.625L0.611328 416.317C1.10034 417.908 1.89499 419.437 2.87301 420.783C5.62371 424.393 9.65807 426.473 14.3037 426.534C15.7096 426.534 16.9933 426.35 18.2158 426.045C18.2158 426.045 30.1355 422.741 30.3189 422.741C30.5634 422.68 30.5634 420.355 30.5634 420.049L30.8079 416.807C30.8079 416.256 30.869 415.705 30.869 415.155V415.277Z" fill="#88E9FD"/>
<path d="M69.3788 402.491C70.9681 402.185 72.5574 401.879 74.1467 401.512C74.5746 401.451 75.0636 401.267 75.4915 401.267L134.112 389.399C132.462 393.008 129.344 395.7 125.187 396.863C125.187 396.863 34.5977 421.823 34.5366 421.823C34.5977 421.823 34.6589 420.477 34.6589 420.416C34.72 419.499 34.8423 418.642 34.9034 417.724L35.3313 413.197C35.4535 411.851 35.6369 410.628 36.6761 409.649C37.593 408.792 38.9989 408.548 40.1603 408.303C43.0944 407.752 46.0284 407.202 48.9014 406.651" fill="url(#paint6_linear_21_6000)" style="mix-blend-mode:overlay"/>
<path d="M209.848 275.852C209.176 277.993 207.403 280.135 204.102 280.135C182.035 280.135 160.03 280.502 137.963 280.685C125.371 280.808 112.84 281.114 100.248 281.236C93.9517 281.236 87.6557 281.236 81.4208 281.114C79.098 281.114 75.4304 281.725 73.5354 280.196C72.0684 278.972 71.6405 276.648 72.6185 275.057C73.4132 273.711 74.9414 272.732 76.1028 271.692C78.6701 269.429 81.2374 267.165 83.8047 264.84L90.6509 258.784L98.2917 251.993L106.177 244.957L113.757 238.228C115.957 236.27 118.219 234.251 120.42 232.293C124.393 228.806 128.427 225.38 132.278 221.771C134.601 219.813 137.718 219.63 140.041 221.281L143.159 223.606L167.915 240.981L207.525 269.061C210.337 271.019 210.52 273.833 209.848 275.975V275.852Z" fill="url(#paint7_linear_21_6000)" style="mix-blend-mode:overlay"/>
<g style="mix-blend-mode:screen">
<path d="M282.527 319.901L263.456 307.114L241.267 292.248C239.372 290.963 236.988 290.841 234.971 291.942C232.954 293.043 231.731 295.062 231.731 297.387V335.623C231.731 337.642 231.731 339.6 231.976 342.353C231.792 343.882 232.954 345.045 234.299 345.534C236.438 346.33 238.577 345.228 240.595 344.555C241.756 344.188 242.856 343.76 244.018 343.393L253.126 340.273C259.727 338.009 266.39 335.807 272.992 333.543C275.681 332.626 278.371 331.708 281.06 330.79C283.322 329.995 284.85 328.16 285.156 325.774C285.462 323.388 284.484 321.185 282.527 319.901Z" fill="#88E9FD"/>
</g>
<path d="M377.457 284.111C376.785 284.05 376.051 284.05 375.44 284.05C373.912 284.05 372.445 284.111 370.917 284.111H272.503C267.979 284.111 263.456 284.111 258.994 284.111C255.509 284.111 252.27 284.784 251.108 288.516C250.436 290.657 250.803 293.655 253.615 295.552L294.997 323.265C296.709 324.367 298.909 324.611 300.865 323.877L312.235 319.228C313.458 318.738 314.619 318.249 315.841 317.759C318.959 316.475 322.076 315.19 325.194 313.966C329.473 312.253 333.752 310.479 338.03 308.766C342.676 306.87 347.383 304.973 352.028 303.077C356.368 301.302 360.647 299.528 364.987 297.815C368.838 296.286 372.628 294.695 376.479 293.166L378.191 292.493C380.452 291.575 382.103 289.679 381.369 287.048C380.819 285.151 379.23 284.417 377.457 284.234V284.111Z" fill="url(#paint8_linear_21_6000)" style="mix-blend-mode:screen"/>
<path d="M38.8894 454.807C44.0902 454.807 48.2819 458.918 48.2819 464.115V493.668C48.2819 498.788 44.0902 502.976 38.8894 502.976H0V454.884H38.8894V454.807ZM39.3552 464.115C39.3552 464.115 39.1223 463.65 38.8894 463.65H9.31483C9.31483 463.65 8.8491 463.882 8.8491 464.115V493.668C8.8491 493.668 9.08196 494.133 9.31483 494.133H38.8894C38.8894 494.133 39.3552 493.901 39.3552 493.668V464.115Z" fill="white"/>
<path d="M104.016 477.146C104.016 482.266 99.8239 486.454 94.6231 486.454H91.9839L104.016 500.727V502.976H94.3902L80.418 486.454H64.5827V502.976H55.7336V454.885H94.6231C99.8239 454.885 104.016 459.073 104.016 464.193V477.146ZM94.6231 477.612C94.6231 477.612 95.0888 477.379 95.0888 477.146V464.193C95.0888 464.193 94.8559 463.727 94.6231 463.727H65.0485C65.0485 463.727 64.5827 463.96 64.5827 464.193V477.146C64.5827 477.146 64.8156 477.612 65.0485 477.612H94.6231Z" fill="white"/>
<path d="M149.969 454.807C155.092 454.807 159.283 458.918 159.283 464.115V493.668C159.283 498.788 155.092 502.976 149.969 502.976H120.316C115.116 502.976 111.002 498.865 111.002 493.668V464.115C111.002 458.996 115.193 454.807 120.316 454.807H149.969ZM149.969 494.056C149.969 494.056 150.357 493.823 150.357 493.591V464.037C150.357 464.037 150.124 463.572 149.969 463.572H120.316C120.316 463.572 119.851 463.805 119.851 464.037V493.591C119.851 493.591 120.084 494.056 120.316 494.056H149.969Z" fill="white"/>
<path d="M206.091 454.807H215.018V502.899H205.392L175.585 467.605V502.899H166.736V454.807H176.361L206.091 490.1V454.807Z" fill="white"/>
<path d="M335.024 454.807H340.457V494.909C340.457 499.408 336.887 502.899 332.384 502.899H300.171C295.668 502.899 292.098 499.331 292.098 494.909V454.807H297.531V494.909C297.531 496.305 298.773 497.546 300.171 497.546H332.384C333.782 497.546 335.024 496.305 335.024 494.909V454.807Z" fill="white"/>
<path d="M393.785 454.807V460.237H372.361V502.976H366.927V460.237H345.425V454.807H393.707H393.785Z" fill="white"/>
<path d="M398.83 454.807H404.264V502.899H398.83V454.807Z" fill="white"/>
<path d="M421.574 460.237C420.177 460.237 418.935 461.478 418.935 462.874V494.987C418.935 496.383 420.177 497.624 421.574 497.624H461.705V503.054H421.574C417.072 503.054 413.501 499.486 413.501 495.064V462.951C413.501 458.453 417.072 454.962 421.574 454.962H461.705V460.392H421.574V460.237Z" fill="white"/>
<path d="M228.99 502.899H222.625C232.25 486.222 240.944 471.329 250.569 454.807H256.857C266.249 471.018 275.564 486.765 284.801 502.899H278.436L253.674 460.081L228.99 502.899Z" fill="white"/>
</g>
<defs>
<linearGradient id="paint0_linear_21_6000" x1="18.3969" y1="347.859" x2="18.3969" y2="412.341" gradientUnits="userSpaceOnUse">
<stop stop-color="white"/>
<stop offset="1" stop-color="#8FEEFE"/>
</linearGradient>
<linearGradient id="paint1_linear_21_6000" x1="77.4475" y1="234.802" x2="128.855" y2="234.802" gradientUnits="userSpaceOnUse">
<stop stop-color="white"/>
<stop offset="1" stop-color="#88E9FD"/>
</linearGradient>
<linearGradient id="paint2_linear_21_6000" x1="115.835" y1="105.716" x2="227.575" y2="105.716" gradientUnits="userSpaceOnUse">
<stop stop-color="#F7FDFD"/>
<stop offset="1" stop-color="#88E9FD"/>
</linearGradient>
<linearGradient id="paint3_linear_21_6000" x1="77.8142" y1="312.987" x2="227.575" y2="312.987" gradientUnits="userSpaceOnUse">
<stop stop-color="white"/>
<stop offset="1" stop-color="#88E9FD"/>
</linearGradient>
<linearGradient id="paint4_linear_21_6000" x1="231.731" y1="140.037" x2="385.281" y2="140.037" gradientUnits="userSpaceOnUse">
<stop stop-color="#2164CE"/>
<stop offset="1" stop-color="#082E5E"/>
</linearGradient>
<linearGradient id="paint5_linear_21_6000" x1="251.658" y1="378.57" x2="455.516" y2="378.57" gradientUnits="userSpaceOnUse">
<stop stop-color="#1F6DDA"/>
<stop offset="1" stop-color="#083163"/>
</linearGradient>
<linearGradient id="paint6_linear_21_6000" x1="34.5366" y1="405.611" x2="134.112" y2="405.611" gradientUnits="userSpaceOnUse">
<stop stop-color="#2063CC"/>
<stop offset="1" stop-color="#082F61"/>
</linearGradient>
<linearGradient id="paint7_linear_21_6000" x1="72.0684" y1="250.647" x2="210.215" y2="250.647" gradientUnits="userSpaceOnUse">
<stop stop-color="#1F66CF"/>
<stop offset="1" stop-color="#082C5E"/>
</linearGradient>
<linearGradient id="paint8_linear_21_6000" x1="250.803" y1="304.178" x2="381.553" y2="304.178" gradientUnits="userSpaceOnUse">
<stop stop-color="white"/>
<stop offset="1" stop-color="#96ECFD"/>
</linearGradient>
<clipPath id="clip0_21_6000">
<rect width="459" height="512" fill="white"/>
</clipPath>
</defs>
</svg>
