<svg width="331" height="44" viewBox="0 0 331 44" fill="none" xmlns="http://www.w3.org/2000/svg">
<g clip-path="url(#clip0_23_6182)">
<path d="M62.4594 18.9089V38.398H73.2149C75.3807 38.398 77.1244 36.8389 77.1244 34.899V25.218C77.1244 21.6283 80.3731 18.7276 84.3743 18.7276H99.1127V8.43015C99.1127 6.9798 97.7912 5.80139 96.1761 5.80139H77.1244C69.0302 5.80139 62.4594 11.6753 62.4594 18.9089Z" fill="white"/>
<path d="M90.9635 38.4162C95.442 38.4162 99.0761 35.171 99.0761 31.1644C99.0761 27.1578 95.442 23.9127 90.9635 23.9127C86.4851 23.9127 82.851 27.1578 82.851 31.1644C82.851 35.171 86.4851 38.4162 90.9635 38.4162Z" fill="white"/>
<path d="M13.2334 8.61147C14.3346 6.81666 16.4637 5.60199 18.9048 5.60199C22.4839 5.60199 25.3838 8.19449 25.3838 11.4034C25.3838 12.3461 25.1269 13.2345 24.668 14.0322V14.0684L12.2239 35.3523L12.1321 35.4973C11.0308 37.3828 8.86505 38.4887 6.29545 38.4343C2.69803 38.3436 -0.110168 35.6061 -4.26231e-05 32.3791C0.0183116 31.5633 0.201854 30.8562 0.587292 30.1492L0.642355 30.0404L13.2334 8.6296V8.61147Z" fill="white"/>
<path d="M43.1691 34.8446C43.1691 36.7663 44.9128 38.3436 47.0786 38.3436H55.1177V15.5912C55.1177 10.1706 50.3089 5.6926 44.252 5.58382C39.9388 5.5113 36.1762 7.57805 34.2306 10.7144L22.8877 29.8228C22.3738 30.693 22.0801 31.6901 22.0985 32.7416C22.1719 35.8236 25.1269 38.4161 28.5775 38.4161C31.0553 38.4161 33.1661 37.1652 34.2673 35.3523L43.0957 19.7973L43.1691 34.8446Z" fill="white"/>
<path d="M306.259 9.77173H311.214V21.9909C311.214 24.0033 311.948 25.7437 313.398 27.1759C314.848 28.6082 316.592 29.3333 318.648 29.3333C320.703 29.3333 322.447 28.6082 323.897 27.1759C325.347 25.7437 326.081 24.0214 326.081 21.9909V9.77173H331.037V21.9909C331.037 25.363 329.825 28.2456 327.403 30.6386C324.998 33.0136 322.08 34.2101 318.666 34.2101C315.252 34.2101 312.334 33.0136 309.929 30.6205C309.507 30.2217 309.103 29.7866 308.773 29.3515C308.424 29.7866 308.039 30.2217 307.635 30.6205C305.212 33.0136 302.294 34.2101 298.88 34.2101C295.466 34.2101 292.548 33.0136 290.125 30.6386C287.721 28.2456 286.509 25.363 286.509 21.9909V9.77173H291.465V21.9909C291.465 24.0033 292.181 25.7437 293.649 27.1759C295.099 28.6082 296.843 29.3333 298.898 29.3333C300.954 29.3333 302.698 28.6082 304.148 27.1759C305.598 25.7437 306.332 24.0214 306.332 21.9909V9.77173H306.259Z" fill="#F6FAFC"/>
<path d="M271.606 9.77173C275.02 9.77173 277.938 10.9683 280.342 13.3613C282.765 15.7363 283.976 18.6189 283.976 21.9909C283.976 25.363 282.765 28.2456 280.342 30.6386C277.938 33.0136 275.02 34.2101 271.606 34.2101C268.192 34.2101 265.274 33.0136 262.851 30.6386C260.446 28.2456 259.235 25.363 259.235 21.9909C259.235 18.6189 260.446 15.7363 262.851 13.3613C265.274 10.9683 268.192 9.77173 271.606 9.77173ZM271.606 14.6667C269.55 14.6667 267.806 15.3918 266.356 16.8241C264.906 18.2563 264.172 19.9786 264.172 22.0091C264.172 24.0395 264.906 25.7618 266.356 27.1941C267.806 28.6263 269.55 29.3515 271.606 29.3515C273.661 29.3515 275.405 28.6263 276.855 27.1941C278.305 25.7618 279.039 24.0395 279.039 22.0091C279.039 19.9786 278.305 18.2563 276.855 16.8241C275.405 15.3918 273.661 14.6667 271.606 14.6667Z" fill="#F6FAFC"/>
<path d="M256.776 34.2283H251.82V0H256.776V34.2283Z" fill="#F6FAFC"/>
<path d="M241.909 14.6667V34.2283H236.953V12.2192C236.953 8.84714 238.164 5.96457 240.569 3.58962C242.992 1.19654 245.91 0 249.324 0V4.89493C247.268 4.89493 245.524 5.62011 244.074 7.05233C243.248 7.86815 242.661 8.77462 242.294 9.78986H249.324V14.6848H241.89L241.909 14.6667Z" fill="#F6FAFC"/>
<path d="M229.152 19.5616C228.785 18.5463 228.198 17.6399 227.372 16.8241C225.922 15.3918 224.178 14.6667 222.123 14.6667C220.067 14.6667 218.323 15.3918 216.873 16.8241C216.047 17.6399 215.46 18.5463 215.093 19.5616H229.152ZM227.647 26.8859H233.502C232.897 28.2637 232.016 29.4965 230.878 30.6205C228.455 33.0136 225.537 34.2101 222.123 34.2101C218.709 34.2101 215.79 33.0136 213.368 30.6386C210.963 28.2456 209.752 25.363 209.752 21.9909C209.752 18.6189 210.963 15.7363 213.368 13.3613C215.79 10.9683 218.709 9.77173 222.123 9.77173C225.537 9.77173 228.455 10.9683 230.859 13.3613C233.282 15.7363 234.493 18.6189 234.493 21.9909C234.493 22.843 234.42 23.6588 234.273 24.4384H215.093C215.46 25.4536 216.047 26.3601 216.873 27.1759C218.323 28.6082 220.067 29.3333 222.123 29.3333C224.178 29.3333 225.922 28.6082 227.372 27.1759C227.464 27.0853 227.556 26.9765 227.647 26.8859Z" fill="#F6FAFC"/>
<path d="M187.47 21.9909V34.2101H182.514V21.9909C182.514 18.6189 183.726 15.7363 186.13 13.3613C188.553 10.9683 191.471 9.77173 194.885 9.77173C198.299 9.77173 201.217 10.9683 203.622 13.3613C206.045 15.7363 207.256 18.6189 207.256 21.9909V34.2101H202.3V21.9909C202.3 19.9786 201.566 18.2381 200.116 16.8059C198.666 15.3737 196.922 14.6485 194.867 14.6485C192.811 14.6485 191.067 15.3737 189.617 16.8059C188.167 18.2381 187.433 19.9604 187.433 21.9909H187.47Z" fill="#F6FAFC"/>
<path d="M180.055 31.7808C180.055 35.1529 178.844 38.0354 176.421 40.4104C174.016 42.8035 171.098 44 167.684 44V39.1051C169.722 39.1051 171.484 38.3799 172.933 36.9477C174.383 35.5154 175.118 33.7932 175.118 31.7989C172.989 33.4124 170.511 34.2101 167.703 34.2101C164.289 34.2101 161.37 33.0136 158.948 30.6386C156.543 28.2456 155.332 25.363 155.332 21.9909V9.77173H160.287V21.9909C160.287 24.0033 161.022 25.7437 162.472 27.1759C163.922 28.6082 165.665 29.3333 167.721 29.3333C169.777 29.3333 171.52 28.6082 172.97 27.1759C174.42 25.7437 175.154 24.0214 175.154 21.9909V9.77173H180.11V31.7627L180.055 31.7808Z" fill="#F6FAFC"/>
<path d="M128.094 21.9909C128.094 19.9786 127.36 18.2381 125.91 16.8059C124.46 15.3737 122.716 14.6485 120.661 14.6485C118.605 14.6485 116.861 15.3737 115.411 16.8059C113.961 18.2381 113.227 19.9604 113.227 21.9909V34.2101H108.271V21.9909C108.271 18.6189 109.483 15.7363 111.887 13.3613C114.31 10.9683 117.228 9.77173 120.642 9.77173C124.056 9.77173 126.974 10.9683 129.397 13.3432C129.801 13.7602 130.186 14.1953 130.535 14.6304C130.884 14.1953 131.269 13.7602 131.691 13.3432C134.096 10.9683 137.014 9.77173 140.428 9.77173C143.842 9.77173 146.76 10.9683 149.165 13.3613C151.587 15.7363 152.799 18.6189 152.799 21.9909V34.2101H147.843V21.9909C147.843 19.9786 147.109 18.2381 145.659 16.8059C144.209 15.3737 142.465 14.6485 140.41 14.6485C138.354 14.6485 136.61 15.3737 135.16 16.8059C133.71 18.2381 132.976 19.9604 132.976 21.9909V34.2101H128.021V21.9909H128.094Z" fill="#F6FAFC"/>
</g>
<defs>
<clipPath id="clip0_23_6182">
<rect width="331" height="44" fill="white"/>
</clipPath>
</defs>
</svg>
